<?xml version="1.0" encoding="UTF-8"?>
<svg xmlns="http://www.w3.org/2000/svg" xmlns:xlink="http://www.w3.org/1999/xlink" width="48px" height="65px" viewBox="0 0 48 65" version="1.1">
<g id="surface1">
<path style="fill-rule:nonzero;fill:rgb(100%,86.27451%,66.666667%);fill-opacity:1;stroke-width:1.5;stroke-linecap:round;stroke-linejoin:round;stroke:rgb(84.313725%,49.411765%,19.607843%);stroke-opacity:1;stroke-miterlimit:4;" d="M 10.200135 43.541802 L 2.500218 59.480201 L 9.13081 58.481124 L 12.729048 64.171179 L 20.791911 47.050279 " transform="matrix(1.000924,0,0,1.000924,0.102941,0)"/>
<path style="fill:none;stroke-width:1.5;stroke-linecap:round;stroke-linejoin:round;stroke:rgb(84.313725%,49.411765%,19.607843%);stroke-opacity:1;stroke-miterlimit:4;" d="M 11.690945 53.239873 L 15.250156 45.859972 " transform="matrix(1.000924,0,0,1.000924,0.102941,0)"/>
<path style="fill-rule:nonzero;fill:rgb(100%,86.27451%,66.666667%);fill-opacity:1;stroke-width:1.5;stroke-linecap:round;stroke-linejoin:round;stroke:rgb(84.313725%,49.411765%,19.607843%);stroke-opacity:1;stroke-miterlimit:4;" d="M 37.448397 43.549607 L 45.160022 59.499714 L 38.521624 58.488929 L 34.919483 64.190692 L 26.868328 47.058084 " transform="matrix(1.000924,0,0,1.000924,0.102941,0)"/>
<path style="fill:none;stroke-width:1.5;stroke-linecap:round;stroke-linejoin:round;stroke:rgb(84.313725%,49.411765%,19.607843%);stroke-opacity:1;stroke-miterlimit:4;" d="M 35.969294 53.259386 L 32.410083 45.879486 " transform="matrix(1.000924,0,0,1.000924,0.102941,0)"/>
<path style="fill-rule:nonzero;fill:rgb(100%,86.27451%,66.666667%);fill-opacity:1;stroke-width:1.5;stroke-linecap:round;stroke-linejoin:round;stroke:rgb(84.313725%,49.411765%,19.607843%);stroke-opacity:1;stroke-miterlimit:4;" d="M 30.950494 33.461272 L 29.888975 26.018929 L 35.009244 20.551325 L 27.258593 19.111249 L 23.871097 12.30894 L 20.4797 19.111249 L 12.729048 20.551325 L 17.861025 26.018929 L 16.791701 33.461272 L 23.871097 29.898157 Z M 30.950494 33.461272 " transform="matrix(1.000924,0,0,1.000924,0.102941,0)"/>
<path style="fill-rule:nonzero;fill:rgb(100%,86.27451%,66.666667%);fill-opacity:1;stroke-width:1.5;stroke-linecap:round;stroke-linejoin:round;stroke:rgb(84.313725%,49.411765%,19.607843%);stroke-opacity:1;stroke-miterlimit:4;" d="M 55.620362 23.840032 C 55.643778 33.206379 50.016165 41.659506 41.367905 45.249939 C 32.719645 48.844274 22.760097 46.865633 16.141213 40.238944 C 9.522328 33.612254 7.555395 23.648803 11.161439 15.004446 C 14.763579 6.360089 23.224512 0.744184 32.590858 0.779308 C 45.297868 0.833945 55.581335 11.133023 55.620362 23.840032 Z M 32.380115 42.198071 C 39.791237 42.241 46.492077 37.803694 49.348813 30.966261 C 52.201645 24.128828 50.648393 16.245487 45.411044 11.000333 C 40.177599 5.759082 32.294257 4.198024 25.452922 7.046954 C 18.611587 9.891982 14.166475 16.588919 14.201599 24.000041 C 14.244528 34.025934 22.354222 42.143434 32.380115 42.198071 Z M 32.380115 42.198071 " transform="matrix(1.000924,0,0,1.000924,-8.535032,-0.0300277)"/>
</g>
</svg>
