<?xml version="1.0" encoding="UTF-8"?>
<svg xmlns="http://www.w3.org/2000/svg" xmlns:xlink="http://www.w3.org/1999/xlink" width="28px" height="30px" viewBox="0 0 28 30" version="1.1">
<g id="surface1">
<path style=" stroke:none;fill-rule:nonzero;fill:rgb(100%,86.27451%,66.666667%);fill-opacity:1;" d="M 1.710938 8.488281 L 26.738281 8.488281 L 26.738281 28.898438 L 1.710938 28.898438 Z M 1.710938 8.488281 "/>
<path style=" stroke:none;fill-rule:nonzero;fill:rgb(84.313725%,49.411765%,19.607843%);fill-opacity:1;" d="M 13.96875 30 C 10.121094 30 6.28125 30 2.429688 30 C 1.78125 30.03125 1.144531 29.785156 0.6875 29.324219 C 0.226562 28.863281 -0.015625 28.230469 0.0195312 27.578125 C 0.0195312 20.28125 0.0195312 12.988281 0.0195312 5.699219 C -0.0546875 5.046875 0.171875 4.394531 0.640625 3.929688 C 1.105469 3.464844 1.757812 3.234375 2.410156 3.308594 C 3.410156 3.308594 4.351562 3.308594 5.320312 3.308594 C 5.578125 3.320312 5.699219 3.261719 5.699219 3 C 5.699219 2.390625 5.699219 1.78125 5.699219 1.171875 C 5.671875 0.578125 6.109375 0.0625 6.699219 0 C 7 -0.0117188 7.292969 0.101562 7.507812 0.316406 C 7.722656 0.527344 7.839844 0.820312 7.828125 1.121094 C 7.828125 1.730469 7.828125 2.339844 7.828125 2.960938 C 7.828125 3.21875 7.878906 3.308594 8.171875 3.308594 C 11.890625 3.308594 15.601562 3.308594 19.320312 3.308594 C 19.628906 3.308594 19.671875 3.199219 19.671875 2.929688 C 19.671875 2.359375 19.671875 1.800781 19.671875 1.230469 C 19.628906 0.808594 19.832031 0.402344 20.191406 0.179688 C 20.546875 -0.0390625 21 -0.0390625 21.359375 0.179688 C 21.71875 0.402344 21.921875 0.808594 21.878906 1.230469 C 21.878906 1.800781 21.878906 2.359375 21.878906 2.929688 C 21.878906 3.210938 21.941406 3.308594 22.25 3.300781 C 23.410156 3.300781 24.570312 3.300781 25.738281 3.300781 C 26.351562 3.265625 26.945312 3.492188 27.378906 3.925781 C 27.808594 4.359375 28.03125 4.960938 27.988281 5.570312 C 27.988281 12.941406 27.988281 20.308594 27.988281 27.671875 C 28.007812 28.285156 27.773438 28.882812 27.339844 29.320312 C 26.90625 29.761719 26.316406 30.003906 25.699219 30 C 21.761719 30 17.871094 30 13.96875 30 Z M 13.96875 11.28125 L 2.101562 11.28125 C 1.800781 11.28125 1.710938 11.339844 1.710938 11.660156 C 1.699219 16.699219 1.699219 21.769531 1.699219 26.839844 C 1.660156 27.28125 1.816406 27.714844 2.128906 28.023438 C 2.445312 28.335938 2.882812 28.488281 3.320312 28.441406 C 5.660156 28.441406 8.011719 28.441406 10.320312 28.441406 L 24.859375 28.441406 C 25.789062 28.441406 26.300781 27.980469 26.300781 27.109375 C 26.300781 21.96875 26.300781 16.828125 26.300781 11.679688 C 26.300781 11.320312 26.191406 11.25 25.851562 11.25 C 21.910156 11.269531 17.960938 11.261719 14 11.261719 Z M 5.699219 4.808594 C 5.144531 5.234375 4.933594 5.976562 5.191406 6.628906 C 5.449219 7.285156 6.066406 7.722656 6.769531 7.75 C 7.507812 7.730469 8.152344 7.246094 8.371094 6.539062 C 8.585938 5.910156 8.367188 5.214844 7.828125 4.820312 C 7.828125 5.238281 7.828125 5.640625 7.828125 6.03125 C 7.894531 6.453125 7.703125 6.875 7.339844 7.105469 C 6.976562 7.335938 6.515625 7.328125 6.160156 7.089844 C 5.804688 6.847656 5.625 6.421875 5.699219 6 C 5.699219 5.628906 5.699219 5.238281 5.699219 4.808594 Z M 21.898438 4.808594 L 21.898438 5.921875 C 21.941406 6.339844 21.738281 6.746094 21.378906 6.96875 C 21.023438 7.191406 20.566406 7.191406 20.210938 6.96875 C 19.851562 6.746094 19.648438 6.339844 19.691406 5.921875 L 19.691406 4.78125 C 19.15625 5.242188 18.964844 5.988281 19.210938 6.648438 C 19.457031 7.308594 20.089844 7.75 20.796875 7.75 C 21.5 7.75 22.132812 7.308594 22.378906 6.648438 C 22.625 5.988281 22.433594 5.242188 21.898438 4.78125 Z M 21.898438 4.808594 "/>
<path style=" stroke:none;fill-rule:nonzero;fill:rgb(84.313725%,49.411765%,19.607843%);fill-opacity:1;" d="M 16.5 21.429688 C 16.171875 21.429688 15.839844 21.429688 15.5 21.429688 C 15.160156 21.429688 14.839844 21.21875 14.828125 20.769531 C 14.828125 20.109375 14.828125 19.460938 14.828125 18.769531 C 14.804688 18.578125 14.867188 18.386719 15.003906 18.25 C 15.136719 18.113281 15.328125 18.046875 15.519531 18.070312 C 16.179688 18.070312 16.828125 18.070312 17.519531 18.070312 C 17.703125 18.054688 17.882812 18.121094 18.011719 18.25 C 18.144531 18.378906 18.210938 18.558594 18.199219 18.738281 C 18.199219 19.398438 18.199219 20.050781 18.199219 20.738281 C 18.199219 21.21875 17.949219 21.429688 17.460938 21.429688 Z M 16.5 21.429688 "/>
<path style=" stroke:none;fill-rule:nonzero;fill:rgb(84.313725%,49.411765%,19.607843%);fill-opacity:1;" d="M 21.5 21.429688 L 20.5 21.429688 C 20.320312 21.449219 20.136719 21.390625 20.003906 21.265625 C 19.871094 21.140625 19.800781 20.960938 19.808594 20.78125 C 19.808594 20.109375 19.808594 19.441406 19.808594 18.78125 C 19.800781 18.589844 19.875 18.40625 20.011719 18.277344 C 20.152344 18.148438 20.339844 18.085938 20.53125 18.109375 C 21.195312 18.109375 21.835938 18.109375 22.449219 18.109375 C 22.640625 18.085938 22.828125 18.148438 22.964844 18.28125 C 23.101562 18.414062 23.171875 18.601562 23.148438 18.789062 C 23.148438 19.449219 23.148438 20.101562 23.148438 20.789062 C 23.148438 21.269531 22.921875 21.46875 22.421875 21.46875 Z M 21.5 21.429688 "/>
<path style=" stroke:none;fill-rule:nonzero;fill:rgb(84.313725%,49.411765%,19.607843%);fill-opacity:1;" d="M 16.511719 16.441406 C 16.179688 16.441406 15.851562 16.441406 15.511719 16.441406 C 15.320312 16.457031 15.136719 16.390625 15 16.257812 C 14.867188 16.125 14.800781 15.9375 14.820312 15.75 C 14.820312 15.089844 14.820312 14.441406 14.820312 13.75 C 14.792969 13.566406 14.855469 13.382812 14.984375 13.25 C 15.113281 13.121094 15.296875 13.054688 15.480469 13.078125 C 16.148438 13.078125 16.8125 13.078125 17.480469 13.078125 C 17.660156 13.058594 17.84375 13.121094 17.972656 13.246094 C 18.105469 13.375 18.167969 13.558594 18.148438 13.738281 C 18.148438 14.40625 18.148438 15.074219 18.148438 15.738281 C 18.15625 15.921875 18.085938 16.097656 17.953125 16.222656 C 17.820312 16.351562 17.640625 16.414062 17.460938 16.398438 Z M 16.511719 16.441406 "/>
<path style=" stroke:none;fill-rule:nonzero;fill:rgb(84.313725%,49.411765%,19.607843%);fill-opacity:1;" d="M 21.488281 16.441406 L 20.550781 16.441406 C 20.355469 16.457031 20.160156 16.390625 20.019531 16.25 C 19.882812 16.109375 19.8125 15.917969 19.828125 15.71875 C 19.828125 15.078125 19.828125 14.429688 19.828125 13.789062 C 19.804688 13.597656 19.871094 13.410156 20.011719 13.273438 C 20.148438 13.140625 20.339844 13.082031 20.53125 13.109375 C 21.171875 13.109375 21.808594 13.109375 22.449219 13.109375 C 23.089844 13.109375 23.160156 13.320312 23.171875 13.808594 C 23.179688 14.300781 23.171875 15.070312 23.171875 15.691406 C 23.171875 16.308594 22.949219 16.421875 22.429688 16.441406 Z M 21.488281 16.441406 "/>
<path style=" stroke:none;fill-rule:nonzero;fill:rgb(84.313725%,49.411765%,19.607843%);fill-opacity:1;" d="M 4.851562 19.738281 C 4.851562 19.421875 4.851562 19.089844 4.851562 18.738281 C 4.828125 18.558594 4.890625 18.378906 5.015625 18.25 C 5.140625 18.121094 5.320312 18.054688 5.5 18.070312 C 6.171875 18.070312 6.839844 18.070312 7.5 18.070312 C 7.683594 18.054688 7.863281 18.121094 7.992188 18.253906 C 8.121094 18.382812 8.183594 18.566406 8.160156 18.75 C 8.160156 19.421875 8.160156 20.078125 8.160156 20.75 C 8.179688 20.925781 8.117188 21.101562 7.992188 21.226562 C 7.871094 21.351562 7.695312 21.414062 7.519531 21.398438 C 6.839844 21.398438 6.148438 21.398438 5.519531 21.398438 C 5.34375 21.417969 5.171875 21.351562 5.050781 21.226562 C 4.925781 21.101562 4.867188 20.925781 4.890625 20.75 C 4.839844 20.429688 4.851562 20.089844 4.851562 19.738281 Z M 4.851562 19.738281 "/>
<path style=" stroke:none;fill-rule:nonzero;fill:rgb(84.313725%,49.411765%,19.607843%);fill-opacity:1;" d="M 16.488281 26.578125 L 15.488281 26.578125 C 15.332031 26.597656 15.171875 26.546875 15.058594 26.433594 C 14.941406 26.324219 14.878906 26.167969 14.890625 26.011719 C 14.890625 25.289062 14.890625 24.558594 14.890625 23.828125 C 14.890625 23.671875 14.957031 23.519531 15.074219 23.410156 C 15.191406 23.304688 15.351562 23.253906 15.511719 23.269531 C 16.199219 23.269531 16.878906 23.269531 17.570312 23.269531 C 17.742188 23.253906 17.914062 23.316406 18.039062 23.441406 C 18.164062 23.5625 18.226562 23.734375 18.210938 23.910156 C 18.210938 24.589844 18.210938 25.28125 18.210938 25.960938 C 18.222656 26.132812 18.15625 26.304688 18.03125 26.425781 C 17.90625 26.546875 17.734375 26.609375 17.558594 26.589844 Z M 16.488281 26.578125 "/>
<path style=" stroke:none;fill-rule:nonzero;fill:rgb(84.313725%,49.411765%,19.607843%);fill-opacity:1;" d="M 9.859375 14.738281 L 9.859375 13.738281 C 9.832031 13.574219 9.882812 13.402344 9.996094 13.28125 C 10.109375 13.15625 10.273438 13.089844 10.441406 13.101562 C 11.148438 13.101562 11.871094 13.101562 12.578125 13.101562 C 12.742188 13.09375 12.898438 13.15625 13.011719 13.273438 C 13.125 13.390625 13.179688 13.546875 13.171875 13.710938 C 13.171875 14.375 13.171875 15.078125 13.171875 15.808594 C 13.175781 15.976562 13.109375 16.140625 12.992188 16.253906 C 12.871094 16.371094 12.707031 16.429688 12.539062 16.421875 C 11.851562 16.421875 11.160156 16.421875 10.480469 16.421875 C 10.304688 16.433594 10.132812 16.367188 10.011719 16.238281 C 9.890625 16.109375 9.835938 15.933594 9.859375 15.761719 Z M 9.859375 14.738281 "/>
<path style=" stroke:none;fill-rule:nonzero;fill:rgb(84.313725%,49.411765%,19.607843%);fill-opacity:1;" d="M 4.851562 14.710938 L 4.851562 13.769531 C 4.820312 13.597656 4.875 13.421875 4.992188 13.292969 C 5.113281 13.164062 5.285156 13.09375 5.460938 13.109375 C 6.160156 13.109375 6.859375 13.109375 7.570312 13.109375 C 7.738281 13.101562 7.902344 13.171875 8.015625 13.292969 C 8.132812 13.414062 8.1875 13.582031 8.171875 13.75 C 8.171875 14.417969 8.171875 15.082031 8.171875 15.75 C 8.1875 15.933594 8.125 16.113281 7.996094 16.246094 C 7.863281 16.375 7.683594 16.4375 7.5 16.421875 C 6.851562 16.421875 6.191406 16.421875 5.5 16.421875 C 5.019531 16.421875 4.820312 16.199219 4.808594 15.730469 C 4.800781 15.261719 4.851562 15.058594 4.851562 14.710938 Z M 4.851562 14.710938 "/>
<path style=" stroke:none;fill-rule:nonzero;fill:rgb(84.313725%,49.411765%,19.607843%);fill-opacity:1;" d="M 11.488281 26.578125 L 10.488281 26.578125 C 10.324219 26.597656 10.15625 26.542969 10.039062 26.421875 C 9.917969 26.304688 9.859375 26.136719 9.878906 25.96875 L 9.878906 23.871094 C 9.863281 23.703125 9.925781 23.535156 10.042969 23.417969 C 10.164062 23.300781 10.332031 23.242188 10.5 23.261719 C 11.179688 23.261719 11.859375 23.261719 12.550781 23.261719 C 12.722656 23.246094 12.894531 23.308594 13.019531 23.429688 C 13.144531 23.554688 13.207031 23.726562 13.191406 23.898438 C 13.191406 24.578125 13.191406 25.269531 13.191406 25.949219 C 13.203125 26.125 13.136719 26.296875 13.011719 26.417969 C 12.886719 26.539062 12.714844 26.597656 12.539062 26.578125 Z M 11.488281 26.578125 "/>
<path style=" stroke:none;fill-rule:nonzero;fill:rgb(84.313725%,49.411765%,19.607843%);fill-opacity:1;" d="M 11.5 21.390625 L 10.5 21.390625 C 10.335938 21.410156 10.171875 21.351562 10.050781 21.234375 C 9.933594 21.121094 9.875 20.957031 9.890625 20.789062 C 9.890625 20.089844 9.890625 19.390625 9.890625 18.691406 C 9.875 18.523438 9.933594 18.359375 10.050781 18.242188 C 10.167969 18.125 10.332031 18.0625 10.5 18.078125 C 11.199219 18.078125 11.898438 18.078125 12.589844 18.078125 C 12.757812 18.070312 12.921875 18.132812 13.039062 18.253906 C 13.15625 18.375 13.214844 18.542969 13.199219 18.710938 C 13.199219 19.390625 13.199219 20.078125 13.199219 20.761719 C 13.214844 20.933594 13.152344 21.105469 13.03125 21.226562 C 12.90625 21.347656 12.734375 21.410156 12.558594 21.390625 Z M 11.5 21.390625 "/>
<path style=" stroke:none;fill-rule:nonzero;fill:rgb(84.313725%,49.411765%,19.607843%);fill-opacity:1;" d="M 6.480469 26.578125 L 5.550781 26.578125 C 5.070312 26.578125 4.859375 26.359375 4.851562 25.898438 C 4.851562 25.230469 4.851562 24.558594 4.851562 23.898438 C 4.832031 23.730469 4.890625 23.5625 5.007812 23.441406 C 5.125 23.320312 5.289062 23.257812 5.460938 23.269531 C 6.160156 23.269531 6.859375 23.269531 7.558594 23.269531 C 7.726562 23.261719 7.890625 23.324219 8.007812 23.445312 C 8.125 23.566406 8.183594 23.730469 8.171875 23.898438 C 8.171875 24.589844 8.171875 25.269531 8.171875 25.960938 C 8.183594 26.125 8.125 26.292969 8.007812 26.410156 C 7.890625 26.53125 7.726562 26.59375 7.558594 26.578125 Z M 6.480469 26.578125 "/>
</g>
</svg>
