<?xml version="1.0" encoding="UTF-8"?>
<svg xmlns="http://www.w3.org/2000/svg" xmlns:xlink="http://www.w3.org/1999/xlink" width="54px" height="65px" viewBox="0 0 54 66" version="1.1">
<g id="surface1">
<path style=" stroke:none;fill-rule:nonzero;fill:rgb(100%,86.27451%,66.666667%);fill-opacity:1;" d="M 41.929688 18.9375 L 37.183594 13.632812 L 26.273438 18.160156 L 17.589844 13.644531 L 12.269531 18.804688 L 13.820312 8.960938 L 22.21875 2.351562 L 27.53125 1.308594 L 32.945312 2.351562 L 40.660156 9.199219 Z M 41.929688 18.9375 "/>
<path style="fill:none;stroke-width:1.5;stroke-linecap:round;stroke-linejoin:round;stroke:rgb(84.313725%,49.411765%,19.607843%);stroke-opacity:1;stroke-miterlimit:4;" d="M 47.34168 25.910457 C 47.345475 27.106779 47.087376 28.287813 46.57877 29.369471 C 44.168581 34.628702 38.991419 38.07625 33.210762 38.271178 C 27.293464 38.225313 21.941706 34.758654 19.478379 29.380938 C 18.965977 28.295457 18.704082 27.110601 18.711673 25.910457 L 18.711673 14.459399 C 18.704082 13.140769 19.02291 11.837428 19.641589 10.671683 C 21.512806 6.975697 24.682109 4.101466 28.538411 2.591731 C 31.798809 1.372476 35.393216 1.418341 38.619453 2.721683 C 42.202474 4.330793 45.052949 7.220313 46.620521 10.820745 C 47.11015 11.883293 47.356862 13.041394 47.349271 14.210962 Z M 47.34168 25.910457 " transform="matrix(1.02916,0,0,1.022013,-6.792453,-0.430031)"/>
<path style="fill:none;stroke-width:1.5;stroke-linecap:round;stroke-linejoin:round;stroke:rgb(84.313725%,49.411765%,19.607843%);stroke-opacity:1;stroke-miterlimit:4;" d="M 19.140573 19.470192 C 19.421445 19.168245 23.289134 13.469471 23.289134 13.469471 C 25.718301 15.980601 29.009062 17.475048 32.50099 17.650865 C 36.262402 17.673798 39.871992 16.164063 42.498529 13.469471 L 46.829277 19.470192 " transform="matrix(1.02916,0,0,1.022013,-6.792453,-0.430031)"/>
<path style="fill-rule:nonzero;fill:rgb(100%,86.27451%,66.666667%);fill-opacity:1;stroke-width:1.5;stroke-linecap:round;stroke-linejoin:round;stroke:rgb(84.313725%,49.411765%,19.607843%);stroke-opacity:1;stroke-miterlimit:4;" d="M 56.42069 63.730288 L 9.24931 63.730288 C 8.197936 63.722644 7.351523 62.870313 7.351523 61.819231 L 7.351523 51.151707 C 7.340137 49.565529 7.905677 48.029038 8.941868 46.828894 C 11.128118 44.294832 13.747064 42.165913 16.681042 40.549159 C 19.956621 38.760409 23.577598 37.686394 27.301055 37.399736 C 27.301055 37.399736 32.660404 46.320553 33.210762 46.320553 C 33.76112 46.320553 39.040762 37.468534 39.329225 37.460889 C 42.331523 37.361514 45.781699 38.550192 49.611432 40.46125 C 52.507454 42.066538 55.012533 44.302476 56.940684 47.000889 C 57.840234 48.166635 58.326068 49.596106 58.318477 51.071442 L 58.318477 61.819231 C 58.318477 62.870313 57.472064 63.722644 56.42069 63.730288 Z M 56.42069 63.730288 " transform="matrix(1.02916,0,0,1.022013,-6.792453,-0.430031)"/>
<path style="fill:none;stroke-width:1.5;stroke-linecap:round;stroke-linejoin:round;stroke:rgb(84.313725%,49.411765%,19.607843%);stroke-opacity:1;stroke-miterlimit:4;" d="M 13.459102 38.039736 L 18.890566 49.540481 L 26.280547 45.370553 L 20.488503 36.858702 " transform="matrix(1.02916,0,0,1.022013,0,0.540881)"/>
<path style="fill:none;stroke-width:1.5;stroke-linecap:round;stroke-linejoin:round;stroke:rgb(84.313725%,49.411765%,19.607843%);stroke-opacity:1;stroke-miterlimit:4;" d="M 39.659941 38.039736 L 34.228477 49.540481 L 26.838496 45.370553 L 32.63054 36.858702 " transform="matrix(1.02916,0,0,1.022013,0,0.540881)"/>
<path style="fill:none;stroke-width:1.5;stroke-linecap:round;stroke-linejoin:round;stroke:rgb(84.313725%,49.411765%,19.607843%);stroke-opacity:1;stroke-miterlimit:4;" d="M 20.651712 49.05125 L 23.430072 54.169063 L 29.241094 54.169063 L 32.000475 48.871611 " transform="matrix(1.02916,0,0,1.022013,0,0.540881)"/>
<path style="fill:none;stroke-width:1.5;stroke-linecap:round;stroke-linejoin:round;stroke:rgb(84.313725%,49.411765%,19.607843%);stroke-opacity:1;stroke-miterlimit:4;" d="M 20.788353 62.451587 L 23.080879 54.66976 " transform="matrix(1.02916,0,0,1.022013,0,0.540881)"/>
<path style="fill:none;stroke-width:1.5;stroke-linecap:round;stroke-linejoin:round;stroke:rgb(84.313725%,49.411765%,19.607843%);stroke-opacity:1;stroke-miterlimit:4;" d="M 31.939746 62.451587 L 29.651016 54.66976 " transform="matrix(1.02916,0,0,1.022013,0,0.540881)"/>
<path style="fill:none;stroke-width:1.5;stroke-linecap:round;stroke-linejoin:round;stroke:rgb(84.313725%,49.411765%,19.607843%);stroke-opacity:1;stroke-miterlimit:4;" d="M 35.978236 56.74899 L 42.30166 56.74899 " transform="matrix(1.02916,0,0,1.022013,0,0.540881)"/>
<path style="fill:none;stroke-width:1.5;stroke-linecap:round;stroke-linejoin:round;stroke:rgb(84.313725%,49.411765%,19.607843%);stroke-opacity:1;stroke-miterlimit:4;" d="M 45.740449 56.74899 L 46.249056 56.74899 " transform="matrix(1.02916,0,0,1.022013,0,0.540881)"/>
</g>
</svg>
