<?xml version="1.0" encoding="UTF-8"?>
<svg xmlns="http://www.w3.org/2000/svg" xmlns:xlink="http://www.w3.org/1999/xlink" width="20px" height="30px" viewBox="0 0 20 31" version="1.1">
<g id="surface1">
<path style="fill-rule:nonzero;fill:rgb(100%,86.27451%,66.666667%);fill-opacity:1;stroke-width:1.5;stroke-linecap:round;stroke-linejoin:round;stroke:rgb(84.313725%,49.411765%,19.607843%);stroke-opacity:1;stroke-miterlimit:4;" d="M 15.468787 29.119681 C 15.230199 28.718466 14.999186 28.340398 14.779533 27.958472 C 13.060186 25.011085 11.261309 22.121566 9.640426 19.108596 C 8.420977 17.006075 7.485561 14.756956 6.849326 12.411392 C 5.936633 9.286544 6.777371 5.914795 9.049637 3.58852 C 10.397848 2.164978 12.196725 1.250671 14.139512 0.999912 C 16.601133 0.594839 19.119561 1.26996 21.050986 2.851673 C 23.425504 4.688003 24.686611 7.619959 24.391217 10.609782 C 24.209436 12.422965 23.717111 14.185997 22.929393 15.829435 C 21.744027 18.418043 20.410965 20.929495 18.930205 23.359931 L 15.680865 28.849633 Z M 15.468787 23.680132 C 15.514232 23.633838 15.552104 23.583686 15.589975 23.529676 C 16.680662 21.681773 17.809221 19.8493 18.820379 17.951245 C 19.812602 16.180498 20.623043 14.313305 21.240342 12.380529 C 21.691008 11.09587 21.781898 9.714764 21.509227 8.379953 C 20.808611 5.33612 17.945557 3.291467 14.840127 3.615525 C 11.73091 3.939583 9.352605 6.528191 9.288225 9.649181 C 9.295799 10.983992 9.564684 12.299515 10.07973 13.530164 C 10.893959 15.578675 11.871033 17.557746 12.999592 19.448085 C 13.798672 20.860053 14.631836 22.260448 15.461213 23.680132 Z M 15.468787 23.680132 " transform="matrix(1.03146,0,0,1.012549,-5.951521,0.311759)"/>
<path style="fill-rule:nonzero;fill:rgb(100%,86.27451%,66.666667%);fill-opacity:1;stroke-width:1.5;stroke-linecap:round;stroke-linejoin:round;stroke:rgb(84.313725%,49.411765%,19.607843%);stroke-opacity:1;stroke-miterlimit:4;" d="M 15.461213 23.680132 C 14.631836 22.260448 13.798672 20.860053 12.98823 19.448085 C 11.863459 17.557746 10.890172 15.578675 10.07973 13.530164 C 9.564684 12.299515 9.295799 10.983992 9.288225 9.649181 C 9.382902 6.547481 11.764994 3.993593 14.851488 3.681108 C 17.94177 3.364765 20.782102 5.39013 21.501652 8.410815 C 21.774324 9.741769 21.679646 11.126732 21.22898 12.411392 C 20.611682 14.351883 19.80124 16.222934 18.809018 18.001397 C 17.809221 19.899452 16.669301 21.731924 15.578613 23.579828 C 15.540742 23.614549 15.502871 23.649269 15.461213 23.680132 Z M 15.461213 12.851185 C 16.616281 12.916768 17.710756 12.338093 18.309119 11.346629 C 18.907482 10.355165 18.907482 9.1168 18.309119 8.125336 C 17.710756 7.133872 16.616281 6.555196 15.461213 6.620779 C 14.306145 6.555196 13.207883 7.133872 12.60952 8.125336 C 12.014943 9.1168 12.014943 10.355165 12.60952 11.346629 C 13.207883 12.338093 14.306145 12.916768 15.461213 12.851185 Z M 15.461213 12.851185 " transform="matrix(1.03146,0,0,1.012549,-5.951521,0.311759)"/>
</g>
</svg>
