<?xml version="1.0" encoding="UTF-8"?>
<svg xmlns="http://www.w3.org/2000/svg" xmlns:xlink="http://www.w3.org/1999/xlink" width="30px" height="21px" viewBox="0 0 30 21" version="1.1">
<g id="surface1">
<path style="fill-rule:nonzero;fill:rgb(100%,86.27451%,66.666667%);fill-opacity:1;stroke-width:1.5;stroke-linecap:round;stroke-linejoin:round;stroke:rgb(84.313725%,49.411765%,19.607843%);stroke-opacity:1;stroke-miterlimit:4;" d="M 0.798324 8.339668 L 6.120768 12.881122 C 8.63946 15.021034 11.119102 17.14923 13.661223 19.320382 C 13.782276 19.472674 13.965809 19.558583 14.161056 19.558583 C 14.356303 19.558583 14.539836 19.472674 14.660889 19.320382 C 19.194534 15.880122 23.739893 12.439863 28.300872 8.999604 C 28.550789 8.800452 28.808516 8.628634 29.058432 8.441197 C 29.331779 8.620824 29.19901 8.870741 29.19901 9.058178 C 29.19901 13.591823 29.19901 18.129372 29.19901 22.659112 C 29.19901 24.33824 28.570314 24.998176 27.000525 24.998176 L 2.828897 24.998176 C 2.258775 25.06456 1.692557 24.865408 1.286443 24.463198 C 0.880328 24.057083 0.677271 23.490866 0.73975 22.920743 C 0.73975 18.199661 0.73975 13.47077 0.73975 8.741878 C 0.751465 8.605204 0.77099 8.472436 0.798324 8.339668 Z M 0.798324 8.339668 " transform="matrix(1.000333,0,0,1.000333,0.0100033,-4.815105)"/>
<path style="fill-rule:nonzero;fill:rgb(100%,86.27451%,66.666667%);fill-opacity:1;stroke-width:1.5;stroke-linecap:round;stroke-linejoin:round;stroke:rgb(84.313725%,49.411765%,19.607843%);stroke-opacity:1;stroke-miterlimit:4;" d="M 15.00062 5.641349 L 27.000525 5.641349 C 27.449594 5.641349 28.121245 5.450007 28.289158 5.899076 C 28.460975 6.348145 27.820564 6.680065 27.480833 6.898742 C 23.173676 10.178898 18.839184 13.451245 14.481262 16.711876 C 14.375828 16.82512 14.22744 16.891504 14.071242 16.891504 C 13.915044 16.891504 13.762751 16.82512 13.661223 16.711876 C 9.814849 13.341906 5.925521 9.971936 2.001048 6.598061 C 1.790181 6.418434 1.45826 6.211471 1.571504 5.891266 C 1.680842 5.57106 2.020573 5.680398 2.27049 5.680398 C 3.711415 5.680398 5.140626 5.680398 6.581552 5.680398 Z M 15.00062 5.641349 " transform="matrix(1.000333,0,0,1.000333,0.0100033,-4.815105)"/>
</g>
</svg>
