<?xml version="1.0" encoding="UTF-8"?>
<svg xmlns="http://www.w3.org/2000/svg" xmlns:xlink="http://www.w3.org/1999/xlink" width="65px" height="57px" viewBox="0 0 65 57" version="1.1">
<g id="surface1">
<path style="fill-rule:nonzero;fill:rgb(100%,86.27451%,66.666667%);fill-opacity:1;stroke-width:1.5;stroke-linecap:round;stroke-linejoin:round;stroke:rgb(84.313725%,49.411765%,19.607843%);stroke-opacity:1;stroke-miterlimit:4;" d="M 46.929264 40.658246 C 41.444253 40.839649 35.982451 41.441754 30.590275 42.460702 C 19.481 44.309474 26.760824 50.218596 27.449352 51.009825 C 28.594319 52.287368 29.630978 53.653684 30.551593 55.101053 C 32.040824 57.528772 31.549571 59.96807 29.549747 61.430877 C 27.549923 62.889825 24.938934 62.291579 23.22922 60.149474 C 20.769088 57.069474 18.30122 53.970175 15.961 50.789825 C 14.881791 49.319298 13.961176 48.558947 11.868516 48.979649 C 8.360121 49.701404 5.319769 47.76 3.93111 44.479298 C 3.130407 42.59193 2.329703 40.689123 1.621835 38.759298 C 0.213835 35.339649 1.687593 31.410526 4.998714 29.758596 C 9.849352 27.469825 14.870187 25.520702 19.77111 23.34 C 25.689352 20.553333 30.980956 16.597193 35.328736 11.710877 C 35.731022 11.278596 47.401176 40.700702 46.929264 40.658246 Z M 46.929264 40.658246 " transform="matrix(1.009854,0,0,1.012074,-0.325317,-6.699929)"/>
<path style="fill-rule:nonzero;fill:rgb(100%,86.27451%,66.666667%);fill-opacity:1;stroke-width:1.5;stroke-linecap:round;stroke-linejoin:round;stroke:rgb(84.313725%,49.411765%,19.607843%);stroke-opacity:1;stroke-miterlimit:4;" d="M 20.668253 16.148772 L 28.721703 35.998947 " transform="matrix(1.009854,0,0,1.012074,0.0382302,0)"/>
<path style="fill-rule:nonzero;fill:rgb(100%,86.27451%,66.666667%);fill-opacity:1;stroke-width:1.5;stroke-linecap:round;stroke-linejoin:round;stroke:rgb(84.313725%,49.411765%,19.607843%);stroke-opacity:1;stroke-miterlimit:4;" d="M 8.228341 28.850877 L 12.800473 26.998246 " transform="matrix(1.009854,0,0,1.012074,0.0382302,0)"/>
<path style="fill-rule:nonzero;fill:rgb(100%,86.27451%,66.666667%);fill-opacity:1;stroke-width:1.5;stroke-linecap:round;stroke-linejoin:round;stroke:rgb(84.313725%,49.411765%,19.607843%);stroke-opacity:1;stroke-miterlimit:4;" d="M 16.188956 25.620351 L 17.488648 25.099298 " transform="matrix(1.009854,0,0,1.012074,0.0382302,0)"/>
<path style="fill-rule:nonzero;fill:rgb(100%,86.27451%,66.666667%);fill-opacity:1;stroke-width:1.5;stroke-linecap:round;stroke-linejoin:round;stroke:rgb(84.313725%,49.411765%,19.607843%);stroke-opacity:1;stroke-miterlimit:4;" d="M 10.25911 33.710175 L 14.831242 31.849825 " transform="matrix(1.009854,0,0,1.012074,0.0382302,0)"/>
<path style="fill-rule:nonzero;fill:rgb(100%,86.27451%,66.666667%);fill-opacity:1;stroke-width:1.5;stroke-linecap:round;stroke-linejoin:round;stroke:rgb(84.313725%,49.411765%,19.607843%);stroke-opacity:1;stroke-miterlimit:4;" d="M 18.219725 30.479649 L 19.511681 29.950877 " transform="matrix(1.009854,0,0,1.012074,0.0382302,0)"/>
<path style="fill-rule:nonzero;fill:rgb(100%,86.27451%,66.666667%);fill-opacity:1;stroke-width:1.5;stroke-linecap:round;stroke-linejoin:round;stroke:rgb(84.313725%,49.411765%,19.607843%);stroke-opacity:1;stroke-miterlimit:4;" d="M 11.361791 49.060702 C 15.19511 46.972632 19.241176 45.297544 23.430363 44.058596 C 25.523022 43.46807 27.646626 42.989474 29.789571 42.618947 " transform="matrix(1.009854,0,0,1.012074,-0.325317,-6.699929)"/>
<path style="fill:none;stroke-width:1.5;stroke-linecap:round;stroke-linejoin:round;stroke:rgb(84.313725%,49.411765%,19.607843%);stroke-opacity:1;stroke-miterlimit:4;" d="M 25.000824 46.44 C 25.530758 47.026667 26.277308 47.370175 27.066407 47.397193 C 27.859374 47.420351 28.625264 47.123158 29.190011 46.571228 C 30.099022 45.521404 30.133835 43.977544 29.271242 42.889123 " transform="matrix(1.009854,0,0,1.012074,-0.325317,-6.699929)"/>
<path style="fill-rule:nonzero;fill:rgb(100%,86.27451%,66.666667%);fill-opacity:1;stroke-width:1.5;stroke-linecap:round;stroke-linejoin:round;stroke:rgb(84.313725%,49.411765%,19.607843%);stroke-opacity:1;stroke-miterlimit:4;" d="M 43.490134 6.328972 L 44.161534 6.330828 C 45.689616 6.330627 46.93068 7.571901 46.928184 9.099703 L 46.929495 41.051228 C 46.930583 42.580485 45.689252 43.817699 44.159718 43.821476 L 43.488318 43.81962 C 41.960236 43.819821 40.719172 42.578546 40.721668 41.050744 L 40.720356 9.09922 C 40.719268 7.569963 41.962052 6.329173 43.490134 6.328972 Z M 43.490134 6.328972 " transform="matrix(0.935659,-0.380767,0.379932,0.937715,-6.596513,11.851385)"/>
<path style="fill-rule:nonzero;fill:rgb(100%,86.27451%,66.666667%);fill-opacity:1;stroke-width:1.5;stroke-linecap:round;stroke-linejoin:round;stroke:rgb(84.313725%,49.411765%,19.607843%);stroke-opacity:1;stroke-miterlimit:4;" d="M 49.091286 9.818947 L 57.191154 3.728421 " transform="matrix(1.009854,0,0,1.012074,0.0382302,0)"/>
<path style="fill-rule:nonzero;fill:rgb(100%,86.27451%,66.666667%);fill-opacity:1;stroke-width:1.5;stroke-linecap:round;stroke-linejoin:round;stroke:rgb(84.313725%,49.411765%,19.607843%);stroke-opacity:1;stroke-miterlimit:4;" d="M 53.489352 20.649123 L 63.538758 19.371579 " transform="matrix(1.009854,0,0,1.012074,0.0382302,0)"/>
<path style="fill-rule:nonzero;fill:rgb(100%,86.27451%,66.666667%);fill-opacity:1;stroke-width:1.5;stroke-linecap:round;stroke-linejoin:round;stroke:rgb(84.313725%,49.411765%,19.607843%);stroke-opacity:1;stroke-miterlimit:4;" d="M 51.288385 15.230175 L 61.94122 10.911228 " transform="matrix(1.009854,0,0,1.012074,0.0382302,0)"/>
</g>
</svg>
