<?xml version="1.0" encoding="UTF-8"?>
<svg xmlns="http://www.w3.org/2000/svg" xmlns:xlink="http://www.w3.org/1999/xlink" width="28px" height="30px" viewBox="0 0 28 30" version="1.1">
<g id="surface1">
<path style="fill-rule:nonzero;fill:rgb(100%,86.27451%,66.666667%);fill-opacity:1;stroke-width:1.5;stroke-linecap:round;stroke-linejoin:round;stroke:rgb(84.313725%,49.411765%,19.607843%);stroke-opacity:1;stroke-miterlimit:4;" d="M 1.849732 9.450106 C 1.830208 7.802257 2.251932 6.181742 3.071952 4.748661 C 3.618631 3.807591 4.34103 2.979761 5.200098 2.308126 C 5.629632 1.991833 6.008403 1.609157 6.430127 1.308484 C 6.906519 0.859425 7.582059 0.695421 8.210741 0.878949 C 8.671514 1.050763 9.081523 1.339722 9.401722 1.718493 C 9.952306 2.33546 10.440413 3.007095 10.858232 3.721684 C 11.369768 4.455797 11.795398 5.248482 12.131215 6.080216 C 12.467033 6.849473 12.467033 7.720255 12.131215 8.489512 C 11.916448 8.876092 11.631394 9.21191 11.291671 9.489155 C 10.737182 10.02412 10.151454 10.531751 9.538391 11.000333 C 8.897995 11.535299 8.612941 12.386557 8.800374 13.198767 C 9.077619 14.288221 9.573535 15.307388 10.26079 16.2016 C 10.998807 17.236387 11.814922 18.216505 12.701324 19.130241 C 13.525248 20.040073 14.485843 20.817139 15.551868 21.430201 C 16.125882 21.789448 16.809231 21.933927 17.480866 21.840211 C 17.894781 21.758209 18.277457 21.547347 18.570321 21.238863 C 19.070142 20.711708 19.620727 20.23922 20.159597 19.739399 C 21.147525 18.810043 22.646989 18.692898 23.771588 19.450439 C 24.599417 19.954166 25.376483 20.539894 26.091071 21.199814 C 26.590893 21.605919 27.059475 22.051073 27.489009 22.53137 C 27.906829 22.960904 28.195788 23.503679 28.320744 24.089407 C 28.410555 24.663421 28.199693 25.245244 27.758444 25.631825 C 27.004807 26.401081 26.184788 27.10786 25.3101 27.740446 C 24.298743 28.439415 23.142906 28.900188 21.928496 29.099336 C 20.104929 29.376581 18.234503 29.161814 16.520272 28.478464 C 14.56394 27.689683 12.755992 26.565085 11.178431 25.159337 C 9.694586 23.870735 8.323982 22.457178 7.078333 20.930379 C 5.992783 19.641777 5.012665 18.263364 4.149692 16.810758 C 3.372626 15.506536 2.759563 14.108598 2.330029 12.648182 C 2.03326 11.609491 1.873161 10.531751 1.849732 9.450106 Z M 1.849732 9.450106 " transform="matrix(1.000357,0,0,1.000357,-1.100393,-0.00035727)"/>
</g>
</svg>
