<?xml version="1.0" encoding="UTF-8"?>
<svg xmlns="http://www.w3.org/2000/svg" xmlns:xlink="http://www.w3.org/1999/xlink" width="65px" height="64px" viewBox="0 0 65 64" version="1.1">
<g id="surface1">
<path style=" stroke:none;fill-rule:nonzero;fill:rgb(100%,86.27451%,66.666667%);fill-opacity:1;" d="M 24.179688 54.722656 L 6.210938 54.722656 L 6.210938 30 L 11 30 L 10.847656 46.097656 L 18.832031 46.210938 L 19.5625 30 L 24.179688 30 Z M 24.179688 54.722656 "/>
<path style=" stroke:none;fill-rule:nonzero;fill:rgb(100%,86.27451%,66.666667%);fill-opacity:1;" d="M 59.210938 54.722656 L 41.238281 54.722656 L 41.238281 30 L 46.027344 30 L 45.878906 46.097656 L 55.152344 46.230469 L 54.59375 30 L 59.210938 30 Z M 59.210938 54.722656 "/>
<path style=" stroke:none;fill-rule:nonzero;fill:rgb(100%,86.27451%,66.666667%);fill-opacity:1;" d="M 56.695312 21.515625 L 57.707031 25.375 L 61.644531 25.09375 L 59.589844 28.710938 L 5.859375 28.710938 L 3.484375 25.261719 L 7.324219 25.042969 L 7.773438 19.882812 L 3.226562 12.933594 L 10.1875 13.253906 L 17.429688 10.4375 L 18.820312 5.089844 L 25.914062 4.929688 L 32.453125 1.925781 L 38.894531 4.878906 L 46.777344 5.03125 L 47.621094 10.167969 L 54.953125 13.273438 L 62.273438 13.082031 Z M 56.695312 21.515625 "/>
<path style="fill:none;stroke-width:1.5;stroke-linecap:round;stroke-linejoin:round;stroke:rgb(84.313725%,49.411765%,19.607843%);stroke-opacity:1;stroke-miterlimit:4;" d="M 18.191818 17.081467 L 18.191818 10.011421 L 46.698182 10.011421 L 46.698182 17.081467 " transform="matrix(1.001695,0,0,1.001695,0,0.0809832)"/>
<path style="fill-rule:nonzero;fill:rgb(100%,86.27451%,66.666667%);fill-opacity:1;stroke-width:1.5;stroke-linecap:round;stroke-linejoin:round;stroke:rgb(84.313725%,49.411765%,19.607843%);stroke-opacity:1;stroke-miterlimit:4;" d="M 2.211096 58.288957 L 2.211096 54.131941 L 62.678904 54.131941 L 62.678904 58.288957 " transform="matrix(1.001695,0,0,1.001695,0,0.0809832)"/>
<path style="fill-rule:nonzero;fill:rgb(100%,86.27451%,66.666667%);fill-opacity:1;stroke-width:1.5;stroke-linecap:round;stroke-linejoin:round;stroke:rgb(84.313725%,49.411765%,19.607843%);stroke-opacity:1;stroke-miterlimit:4;" d="M 0.748731 58.819308 L 64.141269 58.819308 L 64.141269 62.980223 L 0.748731 62.980223 Z M 0.748731 58.819308 " transform="matrix(1.001695,0,0,1.001695,0,0.0809832)"/>
<path style="fill:none;stroke-width:1.5;stroke-linecap:round;stroke-linejoin:round;stroke:rgb(84.313725%,49.411765%,19.607843%);stroke-opacity:1;stroke-miterlimit:4;" d="M 18.788463 17.081467 L 46.101537 17.081467 L 46.101537 29.119654 L 18.788463 29.119654 Z M 18.788463 17.081467 " transform="matrix(1.001695,0,0,1.001695,0,0.0809832)"/>
<path style="fill-rule:nonzero;fill:rgb(100%,86.27451%,66.666667%);fill-opacity:1;stroke-width:1.5;stroke-linecap:round;stroke-linejoin:round;stroke:rgb(84.313725%,49.411765%,19.607843%);stroke-opacity:1;stroke-miterlimit:4;" d="M 24.540431 32.098978 C 24.540431 33.756325 23.195055 35.101701 21.541608 35.101701 C 19.884261 35.101701 18.538886 33.756325 18.538886 32.098978 C 18.538886 30.441632 19.884261 29.100156 21.541608 29.100156 C 23.195055 29.100156 24.540431 30.441632 24.540431 32.098978 Z M 24.540431 32.098978 " transform="matrix(1.001695,0,0,1.001695,0,0.0809832)"/>
<path style="fill:none;stroke-width:1.5;stroke-linecap:round;stroke-linejoin:round;stroke:rgb(84.313725%,49.411765%,19.607843%);stroke-opacity:1;stroke-miterlimit:4;" d="M 15.379597 3.511066 C 18.284829 5.425789 21.817902 6.143323 25.241785 5.511581 C 28.104121 4.930535 30.697381 3.421374 32.619903 1.218078 " transform="matrix(1.001695,0,0,1.001695,-0.210356,-0.39983)"/>
<path style="fill:none;stroke-width:1.5;stroke-linecap:round;stroke-linejoin:round;stroke:rgb(84.313725%,49.411765%,19.607843%);stroke-opacity:1;stroke-miterlimit:4;" d="M 18.468112 9.231837 C 16.54559 11.427334 13.952329 12.936495 11.089994 13.521441 C 7.67001 14.145383 4.136937 13.431749 1.231706 11.520925 L 6.231043 18.809352 L 18.468112 18.809352 " transform="matrix(1.001695,0,0,1.001695,-0.210356,-0.39983)"/>
<path style="fill:none;stroke-width:1.5;stroke-linecap:round;stroke-linejoin:round;stroke:rgb(84.313725%,49.411765%,19.607843%);stroke-opacity:1;stroke-miterlimit:4;" d="M 18.721588 21.301221 C 16.845862 23.496718 14.287698 25.005879 11.46046 25.590825 C 8.091171 26.218666 4.612693 25.501133 1.769856 23.590309 L 6.000965 29.599654 L 18.721588 29.599654 " transform="matrix(1.001695,0,0,1.001695,-0.210356,-0.39983)"/>
<path style="fill:none;stroke-width:1.5;stroke-linecap:round;stroke-linejoin:round;stroke:rgb(84.313725%,49.411765%,19.607843%);stroke-opacity:1;stroke-miterlimit:4;" d="M 18.320506 10.069915 L 18.320506 5.651624 " transform="matrix(1.001695,0,0,1.001695,0,0.0809832)"/>
<path style="fill:none;stroke-width:1.5;stroke-linecap:round;stroke-linejoin:round;stroke:rgb(84.313725%,49.411765%,19.607843%);stroke-opacity:1;stroke-miterlimit:4;" d="M 5.849459 29.119654 L 5.849459 53.788773 " transform="matrix(1.001695,0,0,1.001695,0,0.0809832)"/>
<path style="fill:none;stroke-width:1.5;stroke-linecap:round;stroke-linejoin:round;stroke:rgb(84.313725%,49.411765%,19.607843%);stroke-opacity:1;stroke-miterlimit:4;" d="M 10.17026 29.279539 L 10.17026 53.960357 " transform="matrix(1.001695,0,0,1.001695,0,0.0809832)"/>
<path style="fill:none;stroke-width:1.5;stroke-linecap:round;stroke-linejoin:round;stroke:rgb(84.313725%,49.411765%,19.607843%);stroke-opacity:1;stroke-miterlimit:4;" d="M 19.318814 34.579149 L 19.318814 53.788773 " transform="matrix(1.001695,0,0,1.001695,0,0.0809832)"/>
<path style="fill:none;stroke-width:1.5;stroke-linecap:round;stroke-linejoin:round;stroke:rgb(84.313725%,49.411765%,19.607843%);stroke-opacity:1;stroke-miterlimit:4;" d="M 14.748436 46.800619 L 14.748436 53.788773 " transform="matrix(1.001695,0,0,1.001695,0,0.0809832)"/>
<path style="fill:none;stroke-width:1.5;stroke-linecap:round;stroke-linejoin:round;stroke:rgb(84.313725%,49.411765%,19.607843%);stroke-opacity:1;stroke-miterlimit:4;" d="M 10.829299 46.551042 L 18.671474 46.551042 " transform="matrix(1.001695,0,0,1.001695,0,0.0809832)"/>
<path style="fill:none;stroke-width:1.5;stroke-linecap:round;stroke-linejoin:round;stroke:rgb(84.313725%,49.411765%,19.607843%);stroke-opacity:1;stroke-miterlimit:4;" d="M 5.849459 49.869635 L 9.850489 49.869635 " transform="matrix(1.001695,0,0,1.001695,0,0.0809832)"/>
<path style="fill:none;stroke-width:1.5;stroke-linecap:round;stroke-linejoin:round;stroke:rgb(84.313725%,49.411765%,19.607843%);stroke-opacity:1;stroke-miterlimit:4;" d="M 19.330513 49.869635 L 23.780001 49.869635 " transform="matrix(1.001695,0,0,1.001695,0,0.0809832)"/>
<path style="fill:none;stroke-width:1.5;stroke-linecap:round;stroke-linejoin:round;stroke:rgb(84.313725%,49.411765%,19.607843%);stroke-opacity:1;stroke-miterlimit:4;" d="M 23.780001 34.579149 L 23.780001 53.090737 " transform="matrix(1.001695,0,0,1.001695,0,0.0809832)"/>
<path style="fill:none;stroke-width:1.5;stroke-linecap:round;stroke-linejoin:round;stroke:rgb(84.313725%,49.411765%,19.607843%);stroke-opacity:1;stroke-miterlimit:4;" d="M 23.780001 17.428535 L 23.780001 28.581504 " transform="matrix(1.001695,0,0,1.001695,0,0.0809832)"/>
<path style="fill:none;stroke-width:1.5;stroke-linecap:round;stroke-linejoin:round;stroke:rgb(84.313725%,49.411765%,19.607843%);stroke-opacity:1;stroke-miterlimit:4;" d="M 7.760282 24.771556 L 7.760282 18.321552 " transform="matrix(1.001695,0,0,1.001695,0,0.0809832)"/>
<path style="fill-rule:nonzero;fill:rgb(100%,86.27451%,66.666667%);fill-opacity:1;stroke-width:1.5;stroke-linecap:round;stroke-linejoin:round;stroke:rgb(84.313725%,49.411765%,19.607843%);stroke-opacity:1;stroke-miterlimit:4;" d="M 46.351114 32.098978 C 46.351114 33.756325 45.005739 35.101701 43.348392 35.101701 C 41.694945 35.101701 40.349569 33.756325 40.349569 32.098978 C 40.349569 30.441632 41.694945 29.100156 43.348392 29.100156 C 45.005739 29.100156 46.351114 30.441632 46.351114 32.098978 Z M 46.351114 32.098978 " transform="matrix(1.001695,0,0,1.001695,0,0.0809832)"/>
<path style="fill:none;stroke-width:1.5;stroke-linecap:round;stroke-linejoin:round;stroke:rgb(84.313725%,49.411765%,19.607843%);stroke-opacity:1;stroke-miterlimit:4;" d="M 49.930403 3.511066 C 47.029071 5.421889 43.499897 6.139423 40.079913 5.511581 C 37.217578 4.934434 34.620418 3.429174 32.701796 1.229777 " transform="matrix(1.001695,0,0,1.001695,-0.210356,-0.39983)"/>
<path style="fill:none;stroke-width:1.5;stroke-linecap:round;stroke-linejoin:round;stroke:rgb(84.313725%,49.411765%,19.607843%);stroke-opacity:1;stroke-miterlimit:4;" d="M 46.849688 9.231837 C 48.77221 11.427334 51.36157 12.936495 54.220006 13.521441 C 57.63999 14.145383 61.173063 13.431749 64.078294 11.520925 L 59.078957 18.809352 L 46.849688 18.809352 " transform="matrix(1.001695,0,0,1.001695,-0.210356,-0.39983)"/>
<path style="fill:none;stroke-width:1.5;stroke-linecap:round;stroke-linejoin:round;stroke:rgb(84.313725%,49.411765%,19.607843%);stroke-opacity:1;stroke-miterlimit:4;" d="M 46.600111 21.301221 C 48.471938 23.496718 51.022302 25.005879 53.84954 25.590825 C 57.218829 26.218666 60.701207 25.501133 63.551843 23.590309 L 59.328534 29.591855 L 46.600111 29.591855 " transform="matrix(1.001695,0,0,1.001695,-0.210356,-0.39983)"/>
<path style="fill:none;stroke-width:1.5;stroke-linecap:round;stroke-linejoin:round;stroke:rgb(84.313725%,49.411765%,19.607843%);stroke-opacity:1;stroke-miterlimit:4;" d="M 46.561695 10.069915 L 46.561695 5.651624 " transform="matrix(1.001695,0,0,1.001695,0,0.0809832)"/>
<path style="fill:none;stroke-width:1.5;stroke-linecap:round;stroke-linejoin:round;stroke:rgb(84.313725%,49.411765%,19.607843%);stroke-opacity:1;stroke-miterlimit:4;" d="M 59.040541 29.119654 L 59.040541 53.788773 " transform="matrix(1.001695,0,0,1.001695,0,0.0809832)"/>
<path style="fill:none;stroke-width:1.5;stroke-linecap:round;stroke-linejoin:round;stroke:rgb(84.313725%,49.411765%,19.607843%);stroke-opacity:1;stroke-miterlimit:4;" d="M 54.711941 29.279539 L 54.711941 53.960357 " transform="matrix(1.001695,0,0,1.001695,0,0.0809832)"/>
<path style="fill:none;stroke-width:1.5;stroke-linecap:round;stroke-linejoin:round;stroke:rgb(84.313725%,49.411765%,19.607843%);stroke-opacity:1;stroke-miterlimit:4;" d="M 45.559487 34.579149 L 45.559487 53.788773 " transform="matrix(1.001695,0,0,1.001695,0,0.0809832)"/>
<path style="fill:none;stroke-width:1.5;stroke-linecap:round;stroke-linejoin:round;stroke:rgb(84.313725%,49.411765%,19.607843%);stroke-opacity:1;stroke-miterlimit:4;" d="M 50.141564 46.800619 L 50.141564 53.788773 " transform="matrix(1.001695,0,0,1.001695,0,0.0809832)"/>
<path style="fill:none;stroke-width:1.5;stroke-linecap:round;stroke-linejoin:round;stroke:rgb(84.313725%,49.411765%,19.607843%);stroke-opacity:1;stroke-miterlimit:4;" d="M 54.060701 46.551042 L 46.210727 46.551042 " transform="matrix(1.001695,0,0,1.001695,0,0.0809832)"/>
<path style="fill:none;stroke-width:1.5;stroke-linecap:round;stroke-linejoin:round;stroke:rgb(84.313725%,49.411765%,19.607843%);stroke-opacity:1;stroke-miterlimit:4;" d="M 59.040541 49.869635 L 55.031712 49.869635 " transform="matrix(1.001695,0,0,1.001695,0,0.0809832)"/>
<path style="fill:none;stroke-width:1.5;stroke-linecap:round;stroke-linejoin:round;stroke:rgb(84.313725%,49.411765%,19.607843%);stroke-opacity:1;stroke-miterlimit:4;" d="M 45.559487 49.869635 L 41.0983 49.869635 " transform="matrix(1.001695,0,0,1.001695,0,0.0809832)"/>
<path style="fill:none;stroke-width:1.5;stroke-linecap:round;stroke-linejoin:round;stroke:rgb(84.313725%,49.411765%,19.607843%);stroke-opacity:1;stroke-miterlimit:4;" d="M 41.0983 34.579149 L 41.0983 53.090737 " transform="matrix(1.001695,0,0,1.001695,0,0.0809832)"/>
<path style="fill:none;stroke-width:1.5;stroke-linecap:round;stroke-linejoin:round;stroke:rgb(84.313725%,49.411765%,19.607843%);stroke-opacity:1;stroke-miterlimit:4;" d="M 41.0983 17.428535 L 41.0983 28.581504 " transform="matrix(1.001695,0,0,1.001695,0,0.0809832)"/>
<path style="fill:none;stroke-width:1.5;stroke-linecap:round;stroke-linejoin:round;stroke:rgb(84.313725%,49.411765%,19.607843%);stroke-opacity:1;stroke-miterlimit:4;" d="M 57.129718 24.771556 L 57.129718 18.321552 " transform="matrix(1.001695,0,0,1.001695,0,0.0809832)"/>
<path style="fill:none;stroke-width:1.5;stroke-linecap:round;stroke-linejoin:round;stroke:rgb(84.313725%,49.411765%,19.607843%);stroke-opacity:1;stroke-miterlimit:4;" d="M 28.611654 21.250181 L 28.611654 21.550454 " transform="matrix(1.001695,0,0,1.001695,0,0.0809832)"/>
<path style="fill:none;stroke-width:1.5;stroke-linecap:round;stroke-linejoin:round;stroke:rgb(84.313725%,49.411765%,19.607843%);stroke-opacity:1;stroke-miterlimit:4;" d="M 32.519093 21.250181 L 32.519093 21.550454 " transform="matrix(1.001695,0,0,1.001695,0,0.0809832)"/>
<path style="fill:none;stroke-width:1.5;stroke-linecap:round;stroke-linejoin:round;stroke:rgb(84.313725%,49.411765%,19.607843%);stroke-opacity:1;stroke-miterlimit:4;" d="M 36.430431 21.250181 L 36.430431 21.550454 " transform="matrix(1.001695,0,0,1.001695,0,0.0809832)"/>
<path style="fill:none;stroke-width:1.5;stroke-linecap:round;stroke-linejoin:round;stroke:rgb(84.313725%,49.411765%,19.607843%);stroke-opacity:1;stroke-miterlimit:4;" d="M 28.611654 24.631169 L 28.611654 24.919742 " transform="matrix(1.001695,0,0,1.001695,0,0.0809832)"/>
<path style="fill:none;stroke-width:1.5;stroke-linecap:round;stroke-linejoin:round;stroke:rgb(84.313725%,49.411765%,19.607843%);stroke-opacity:1;stroke-miterlimit:4;" d="M 32.519093 24.631169 L 32.519093 24.919742 " transform="matrix(1.001695,0,0,1.001695,0,0.0809832)"/>
<path style="fill:none;stroke-width:1.5;stroke-linecap:round;stroke-linejoin:round;stroke:rgb(84.313725%,49.411765%,19.607843%);stroke-opacity:1;stroke-miterlimit:4;" d="M 36.430431 24.631169 L 36.430431 24.919742 " transform="matrix(1.001695,0,0,1.001695,0,0.0809832)"/>
</g>
</svg>
