<?xml version="1.0" encoding="UTF-8"?>
<svg xmlns="http://www.w3.org/2000/svg" xmlns:xlink="http://www.w3.org/1999/xlink" width="65px" height="64px" viewBox="0 0 66 64" version="1.1">
<g id="surface1">
<path style=" stroke:none;fill-rule:nonzero;fill:rgb(100%,86.27451%,66.666667%);fill-opacity:1;" d="M 3.40625 49.878906 C 5.484375 48.925781 7.449219 47.734375 9.253906 46.328125 C 10.898438 45.039062 12.398438 43.574219 13.730469 41.960938 L 52.128906 41.960938 C 53.566406 43.671875 55.191406 45.214844 56.976562 46.5625 C 58.75 47.875 60.660156 48.984375 62.675781 49.878906 Z M 3.40625 49.878906 "/>
<path style=" stroke:none;fill-rule:nonzero;fill:rgb(100%,86.27451%,66.666667%);fill-opacity:1;" d="M 22.027344 50.503906 L 23.957031 50.503906 L 23.957031 62.746094 L 22.027344 62.746094 Z M 22.027344 50.503906 "/>
<path style=" stroke:none;fill-rule:nonzero;fill:rgb(100%,86.27451%,66.666667%);fill-opacity:1;" d="M 41.941406 50.625 L 43.871094 50.625 L 43.871094 62.867188 L 41.941406 62.867188 Z M 41.941406 50.625 "/>
<path style=" stroke:none;fill-rule:nonzero;fill:rgb(100%,86.27451%,66.666667%);fill-opacity:1;" d="M 11.457031 33.5 L 19.582031 29.265625 L 46.316406 29.105469 L 54.59375 33.5 Z M 11.457031 33.5 "/>
<path style=" stroke:none;fill-rule:nonzero;fill:rgb(100%,86.27451%,66.666667%);fill-opacity:1;" d="M 16.246094 19.84375 C 19.226562 18.890625 22.058594 17.53125 24.664062 15.800781 C 27.304688 14.023438 29.683594 11.890625 31.738281 9.460938 L 34.171875 9.460938 C 36.066406 11.929688 38.351562 14.070312 40.933594 15.800781 C 43.8125 17.714844 47.015625 19.085938 50.390625 19.84375 L 36.335938 19.84375 L 35.847656 17.691406 L 30.222656 17.691406 L 29.835938 19.84375 Z M 16.246094 19.84375 "/>
<path style="fill:none;stroke-width:1.5;stroke-linecap:round;stroke-linejoin:round;stroke:rgb(84.313725%,49.411765%,19.607843%);stroke-opacity:1;stroke-miterlimit:4;" d="M 6.901345 49.661873 L 57.700511 49.661873 L 57.700511 62.548765 L 6.901345 62.548765 Z M 6.901345 49.661873 " transform="matrix(1.010413,0,0,1.010899,0.393981,0)"/>
<path style="fill:none;stroke-width:1.5;stroke-linecap:round;stroke-linejoin:round;stroke:rgb(84.313725%,49.411765%,19.607843%);stroke-opacity:1;stroke-miterlimit:4;" d="M 12.750594 37.671459 L 51.878324 37.671459 L 51.878324 41.508546 L 12.750594 41.508546 Z M 12.750594 37.671459 " transform="matrix(1.010413,0,0,1.010899,0.393981,0)"/>
<path style="fill-rule:nonzero;fill:rgb(100%,86.27451%,66.666667%);fill-opacity:1;stroke-width:1.5;stroke-linecap:round;stroke-linejoin:round;stroke:rgb(84.313725%,49.411765%,19.607843%);stroke-opacity:1;stroke-miterlimit:4;" d="M 19.148815 24.691827 L 45.449175 24.691827 L 45.449175 28.791675 L 19.148815 28.791675 Z M 19.148815 24.691827 " transform="matrix(1.010413,0,0,1.010899,0.393981,0)"/>
<path style="fill:none;stroke-width:1.5;stroke-linecap:round;stroke-linejoin:round;stroke:rgb(84.313725%,49.411765%,19.607843%);stroke-opacity:1;stroke-miterlimit:4;" d="M 29.521278 17.531584 L 35.08831 17.531584 L 35.08831 24.691827 L 29.521278 24.691827 Z M 29.521278 17.531584 " transform="matrix(1.010413,0,0,1.010899,0.393981,0)"/>
<path style="fill-rule:nonzero;fill:rgb(100%,86.27451%,66.666667%);fill-opacity:1;stroke-width:1.5;stroke-linecap:round;stroke-linejoin:round;stroke:rgb(84.313725%,49.411765%,19.607843%);stroke-opacity:1;stroke-miterlimit:4;" d="M 12.190025 54.271786 L 17.509633 54.271786 L 17.509633 62.548765 L 12.190025 62.548765 Z M 12.190025 54.271786 " transform="matrix(1.010413,0,0,1.010899,0.393981,0)"/>
<path style="fill-rule:nonzero;fill:rgb(100%,86.27451%,66.666667%);fill-opacity:1;stroke-width:1.5;stroke-linecap:round;stroke-linejoin:round;stroke:rgb(84.313725%,49.411765%,19.607843%);stroke-opacity:1;stroke-miterlimit:4;" d="M 29.648856 54.271786 L 34.968464 54.271786 L 34.968464 62.548765 L 29.648856 62.548765 Z M 29.648856 54.271786 " transform="matrix(1.010413,0,0,1.010899,0.393981,0)"/>
<path style="fill-rule:nonzero;fill:rgb(100%,86.27451%,66.666667%);fill-opacity:1;stroke-width:1.5;stroke-linecap:round;stroke-linejoin:round;stroke:rgb(84.313725%,49.411765%,19.607843%);stroke-opacity:1;stroke-miterlimit:4;" d="M 47.691452 54.271786 L 53.01106 54.271786 L 53.01106 62.548765 L 47.691452 62.548765 Z M 47.691452 54.271786 " transform="matrix(1.010413,0,0,1.010899,0.393981,0)"/>
<path style="fill:none;stroke-width:1.5;stroke-linecap:round;stroke-linejoin:round;stroke:rgb(84.313725%,49.411765%,19.607843%);stroke-opacity:1;stroke-miterlimit:4;" d="M 5.218095 51.000959 L -0.449452 51.000959 C 2.450044 50.28223 5.17557 48.976152 7.54929 47.160009 C 9.053162 46.008496 10.398528 44.663777 11.550594 43.160628 " transform="matrix(1.010413,0,0,1.010899,1.606476,-1.384931)"/>
<path style="fill:none;stroke-width:1.5;stroke-linecap:round;stroke-linejoin:round;stroke:rgb(84.313725%,49.411765%,19.607843%);stroke-opacity:1;stroke-miterlimit:4;" d="M 11.538996 38.998954 C 8.863728 38.863709 6.51707 37.175082 5.538973 34.67885 C 8.767078 34.593839 11.92173 33.712816 14.728442 32.120792 C 15.799322 31.490938 16.804481 30.760616 17.728453 29.94142 " transform="matrix(1.010413,0,0,1.010899,1.606476,-1.384931)"/>
<path style="fill:none;stroke-width:1.5;stroke-linecap:round;stroke-linejoin:round;stroke:rgb(84.313725%,49.411765%,19.607843%);stroke-opacity:1;stroke-miterlimit:4;" d="M 18.118919 26.061827 C 16.916595 26.046371 15.745198 25.675414 14.751638 24.99919 C 13.526117 24.133624 12.652403 22.854595 12.288999 21.40168 C 15.899838 20.686815 19.344439 19.287997 22.429503 17.278647 C 25.301936 15.404541 27.818699 13.035826 29.859944 10.280697 " transform="matrix(1.010413,0,0,1.010899,1.606476,-1.384931)"/>
<path style="fill:none;stroke-width:1.5;stroke-linecap:round;stroke-linejoin:round;stroke:rgb(84.313725%,49.411765%,19.607843%);stroke-opacity:1;stroke-miterlimit:4;" d="M 56.910307 51.000959 L 62.58172 51.000959 C 59.678359 50.28223 56.956698 48.976152 54.579112 47.160009 C 53.07524 46.008496 51.729874 44.663777 50.581674 43.160628 " transform="matrix(1.010413,0,0,1.010899,1.606476,-1.384931)"/>
<path style="fill:none;stroke-width:1.5;stroke-linecap:round;stroke-linejoin:round;stroke:rgb(84.313725%,49.411765%,19.607843%);stroke-opacity:1;stroke-miterlimit:4;" d="M 50.589406 38.998954 C 53.264674 38.863709 55.615198 37.175082 56.589429 34.67885 C 53.361324 34.593839 50.206672 33.712816 47.39996 32.120792 C 46.332946 31.490938 45.327787 30.760616 44.399949 29.94142 " transform="matrix(1.010413,0,0,1.010899,1.606476,-1.384931)"/>
<path style="fill:none;stroke-width:1.5;stroke-linecap:round;stroke-linejoin:round;stroke:rgb(84.313725%,49.411765%,19.607843%);stroke-opacity:1;stroke-miterlimit:4;" d="M 44.001751 26.061827 C 45.207941 26.046371 46.383204 25.679278 47.38063 24.99919 C 48.606151 24.133624 49.475999 22.854595 49.839403 21.40168 C 46.228564 20.68295 42.787829 19.280269 39.698899 17.270919 C 36.830332 15.392949 34.313569 13.024233 32.268458 10.269105 " transform="matrix(1.010413,0,0,1.010899,1.606476,-1.384931)"/>
<path style="fill-rule:nonzero;fill:rgb(100%,86.27451%,66.666667%);fill-opacity:1;stroke-width:1.5;stroke-linecap:round;stroke-linejoin:round;stroke:rgb(84.313725%,49.411765%,19.607843%);stroke-opacity:1;stroke-miterlimit:4;" d="M 34.009697 7.670309 C 34.009697 8.609294 33.248097 9.370529 32.30866 9.370529 C 31.369223 9.370529 30.611488 8.609294 30.611488 7.670309 C 30.611488 6.731324 31.369223 5.97009 32.30866 5.97009 C 33.248097 5.97009 34.009697 6.731324 34.009697 7.670309 Z M 34.009697 7.670309 " transform="matrix(1.010413,0,0,1.010899,0.393981,0)"/>
<path style="fill-rule:nonzero;fill:rgb(100%,86.27451%,66.666667%);fill-opacity:1;stroke-width:1.5;stroke-linecap:round;stroke-linejoin:round;stroke:rgb(84.313725%,49.411765%,19.607843%);stroke-opacity:1;stroke-miterlimit:4;" d="M 34.009697 2.449862 C 34.009697 3.388847 33.248097 4.150082 32.30866 4.150082 C 31.369223 4.150082 30.611488 3.388847 30.611488 2.449862 C 30.611488 1.510877 31.369223 0.749642 32.30866 0.749642 C 33.248097 0.749642 34.009697 1.510877 34.009697 2.449862 Z M 34.009697 2.449862 " transform="matrix(1.010413,0,0,1.010899,0.393981,0)"/>
<path style="fill:none;stroke-width:1.5;stroke-linecap:round;stroke-linejoin:round;stroke:rgb(84.313725%,49.411765%,19.607843%);stroke-opacity:1;stroke-miterlimit:4;" d="M 30.128239 5.058154 L 34.431091 5.058154 " transform="matrix(1.010413,0,0,1.010899,0.393981,0)"/>
<path style="fill:none;stroke-width:1.5;stroke-linecap:round;stroke-linejoin:round;stroke:rgb(84.313725%,49.411765%,19.607843%);stroke-opacity:1;stroke-miterlimit:4;" d="M 7.071449 33.498193 L 57.360304 33.498193 " transform="matrix(1.010413,0,0,1.010899,0.393981,0)"/>
<path style="fill:none;stroke-width:1.5;stroke-linecap:round;stroke-linejoin:round;stroke:rgb(84.313725%,49.411765%,19.607843%);stroke-opacity:1;stroke-miterlimit:4;" d="M 13.488999 20.008495 L 29.138545 20.008495 " transform="matrix(1.010413,0,0,1.010899,0.393981,0)"/>
<path style="fill:none;stroke-width:1.5;stroke-linecap:round;stroke-linejoin:round;stroke:rgb(84.313725%,49.411765%,19.607843%);stroke-opacity:1;stroke-miterlimit:4;" d="M 35.08831 20.008495 L 50.741721 20.008495 " transform="matrix(1.010413,0,0,1.010899,0.393981,0)"/>
<path style="fill:none;stroke-width:1.5;stroke-linecap:round;stroke-linejoin:round;stroke:rgb(84.313725%,49.411765%,19.607843%);stroke-opacity:1;stroke-miterlimit:4;" d="M 21.410422 49.959411 L 21.410422 62.301461 " transform="matrix(1.010413,0,0,1.010899,0.393981,0)"/>
<path style="fill:none;stroke-width:1.5;stroke-linecap:round;stroke-linejoin:round;stroke:rgb(84.313725%,49.411765%,19.607843%);stroke-opacity:1;stroke-miterlimit:4;" d="M 23.579245 49.959411 L 23.579245 62.301461 " transform="matrix(1.010413,0,0,1.010899,0.393981,0)"/>
<path style="fill:none;stroke-width:1.5;stroke-linecap:round;stroke-linejoin:round;stroke:rgb(84.313725%,49.411765%,19.607843%);stroke-opacity:1;stroke-miterlimit:4;" d="M 40.999415 49.959411 L 40.999415 62.301461 " transform="matrix(1.010413,0,0,1.010899,0.393981,0)"/>
<path style="fill:none;stroke-width:1.5;stroke-linecap:round;stroke-linejoin:round;stroke:rgb(84.313725%,49.411765%,19.607843%);stroke-opacity:1;stroke-miterlimit:4;" d="M 43.160506 49.959411 L 43.160506 62.301461 " transform="matrix(1.010413,0,0,1.010899,0.393981,0)"/>
</g>
</svg>
