<?xml version="1.0" encoding="UTF-8"?>
<svg xmlns="http://www.w3.org/2000/svg" xmlns:xlink="http://www.w3.org/1999/xlink" width="48px" height="65px" viewBox="0 0 48 65" version="1.1">
<g id="surface1">
<path style="fill-rule:nonzero;fill:rgb(87.843137%,93.72549%,98.431373%);fill-opacity:1;stroke-width:1.5;stroke-linecap:round;stroke-linejoin:round;stroke:rgb(6.27451%,11.372549%,15.686275%);stroke-opacity:1;stroke-miterlimit:4;" d="M 10.200135 43.541802 L 2.500218 59.480201 L 9.13081 58.481124 L 12.729048 64.171179 L 20.791911 47.050279 " transform="matrix(1.000924,0,0,1.000924,0.102941,0)"/>
<path style="fill-rule:nonzero;fill:rgb(87.843137%,93.72549%,98.431373%);fill-opacity:1;stroke-width:1.5;stroke-linecap:round;stroke-linejoin:round;stroke:rgb(6.27451%,11.372549%,15.686275%);stroke-opacity:1;stroke-miterlimit:4;" d="M 11.690945 53.239873 L 15.250156 45.859972 " transform="matrix(1.000924,0,0,1.000924,0.102941,0)"/>
<path style="fill-rule:nonzero;fill:rgb(87.843137%,93.72549%,98.431373%);fill-opacity:1;stroke-width:1.5;stroke-linecap:round;stroke-linejoin:round;stroke:rgb(6.27451%,11.372549%,15.686275%);stroke-opacity:1;stroke-miterlimit:4;" d="M 37.448397 43.549607 L 45.160022 59.499714 L 38.521624 58.488929 L 34.919483 64.190692 L 26.868328 47.058084 " transform="matrix(1.000924,0,0,1.000924,0.102941,0)"/>
<path style="fill-rule:nonzero;fill:rgb(87.843137%,93.72549%,98.431373%);fill-opacity:1;stroke-width:1.5;stroke-linecap:round;stroke-linejoin:round;stroke:rgb(6.27451%,11.372549%,15.686275%);stroke-opacity:1;stroke-miterlimit:4;" d="M 35.969294 53.259386 L 32.410083 45.879486 " transform="matrix(1.000924,0,0,1.000924,0.102941,0)"/>
<path style="fill-rule:nonzero;fill:rgb(87.843137%,93.72549%,98.431373%);fill-opacity:1;stroke-width:1.5;stroke-linecap:round;stroke-linejoin:round;stroke:rgb(6.27451%,11.372549%,15.686275%);stroke-opacity:1;stroke-miterlimit:4;" d="M 30.950494 33.461272 L 29.888975 26.018929 L 35.009244 20.551325 L 27.258593 19.111249 L 23.871097 12.30894 L 20.4797 19.111249 L 12.729048 20.551325 L 17.861025 26.018929 L 16.791701 33.461272 L 23.871097 29.898157 Z M 30.950494 33.461272 " transform="matrix(1.000924,0,0,1.000924,0.102941,0)"/>
<path style="fill-rule:nonzero;fill:rgb(87.843137%,93.72549%,98.431373%);fill-opacity:1;stroke-width:1.5;stroke-linecap:round;stroke-linejoin:round;stroke:rgb(6.27451%,11.372549%,15.686275%);stroke-opacity:1;stroke-miterlimit:4;" d="M 58.358167 23.840032 C 58.389388 33.210281 52.761775 41.671214 44.10571 45.269452 C 35.453548 48.863787 25.486195 46.885147 18.863407 40.254554 C 12.24062 33.623962 10.273687 23.652706 13.883633 15.004446 C 17.489677 6.356186 25.958415 0.740281 35.328663 0.779308 C 48.039576 0.833945 58.323043 11.133023 58.358167 23.840032 Z M 35.110115 42.198071 C 42.521237 42.241 49.222077 37.803694 52.078813 30.966261 C 54.931645 24.128828 53.378393 16.245487 48.141044 11.000333 C 42.907599 5.759082 35.024257 4.198024 28.182922 7.046954 C 21.341587 9.891982 16.896475 16.588919 16.931599 24.000041 C 16.974528 34.025934 25.084222 42.143434 35.110115 42.198071 Z M 35.110115 42.198071 " transform="matrix(1.000924,0,0,1.000924,-11.267555,-0.0300277)"/>
</g>
</svg>
