<?xml version="1.0" encoding="UTF-8"?>
<svg xmlns="http://www.w3.org/2000/svg" xmlns:xlink="http://www.w3.org/1999/xlink" width="28px" height="30px" viewBox="0 0 28 30" version="1.1">
<g id="surface1">
<path style=" stroke:none;fill-rule:nonzero;fill:rgb(87.843137%,93.72549%,98.431373%);fill-opacity:1;" d="M 1.710938 8.488281 L 26.738281 8.488281 L 26.738281 28.898438 L 1.710938 28.898438 Z M 1.710938 8.488281 "/>
<path style=" stroke:none;fill-rule:nonzero;fill:rgb(6.27451%,11.372549%,15.686275%);fill-opacity:1;" d="M 13.96875 29.980469 C 10.121094 29.980469 6.269531 29.980469 2.429688 29.980469 C 1.777344 30.015625 1.144531 29.769531 0.683594 29.308594 C 0.222656 28.847656 -0.0195312 28.210938 0.0195312 27.558594 C 0.0195312 20.261719 0.0195312 12.96875 0.0195312 5.671875 C -0.0507812 5.019531 0.175781 4.375 0.636719 3.910156 C 1.097656 3.449219 1.742188 3.214844 2.390625 3.28125 L 5.300781 3.28125 C 5.570312 3.28125 5.671875 3.28125 5.660156 2.941406 C 5.660156 2.328125 5.660156 1.71875 5.660156 1.101562 C 5.648438 0.492188 6.128906 -0.0117188 6.738281 -0.03125 C 7.035156 -0.03125 7.316406 0.0898438 7.523438 0.300781 C 7.726562 0.511719 7.839844 0.796875 7.828125 1.089844 C 7.828125 1.699219 7.828125 2.308594 7.828125 2.921875 C 7.828125 3.179688 7.878906 3.28125 8.171875 3.28125 L 19.308594 3.28125 C 19.621094 3.28125 19.660156 3.179688 19.660156 2.910156 C 19.660156 2.339844 19.660156 1.769531 19.660156 1.210938 C 19.621094 0.789062 19.820312 0.382812 20.179688 0.160156 C 20.539062 -0.0625 20.992188 -0.0625 21.351562 0.160156 C 21.707031 0.382812 21.910156 0.789062 21.871094 1.210938 C 21.871094 1.769531 21.871094 2.339844 21.871094 2.910156 C 21.871094 3.191406 21.929688 3.289062 22.238281 3.28125 C 23.398438 3.28125 24.558594 3.28125 25.730469 3.28125 C 26.339844 3.246094 26.9375 3.476562 27.367188 3.914062 C 27.796875 4.351562 28.019531 4.949219 27.980469 5.558594 C 27.980469 12.921875 27.980469 20.289062 27.980469 27.660156 C 27.996094 28.28125 27.757812 28.882812 27.316406 29.320312 C 26.875 29.757812 26.269531 29.992188 25.648438 29.96875 C 21.761719 29.949219 17.871094 29.980469 13.96875 29.980469 Z M 13.96875 11.261719 L 2.078125 11.261719 C 1.78125 11.261719 1.679688 11.320312 1.691406 11.640625 C 1.691406 16.710938 1.691406 21.78125 1.691406 26.851562 C 1.652344 27.289062 1.8125 27.71875 2.125 28.027344 C 2.4375 28.335938 2.875 28.488281 3.308594 28.441406 L 24.859375 28.441406 C 25.789062 28.441406 26.300781 27.980469 26.300781 27.109375 C 26.300781 21.957031 26.300781 16.808594 26.300781 11.671875 C 26.300781 11.320312 26.179688 11.25 25.851562 11.25 Z M 5.660156 4.839844 C 5.101562 5.261719 4.890625 6.007812 5.148438 6.660156 C 5.410156 7.328125 6.050781 7.773438 6.769531 7.78125 C 7.507812 7.757812 8.148438 7.273438 8.371094 6.570312 C 8.589844 5.9375 8.371094 5.234375 7.828125 4.839844 L 7.828125 6.050781 C 7.871094 6.460938 7.671875 6.863281 7.320312 7.082031 C 6.96875 7.300781 6.523438 7.300781 6.171875 7.082031 C 5.816406 6.863281 5.621094 6.460938 5.660156 6.050781 Z M 21.859375 4.839844 C 21.859375 5.269531 21.859375 5.628906 21.859375 5.980469 C 21.890625 6.292969 21.785156 6.609375 21.574219 6.839844 C 21.359375 7.074219 21.054688 7.203125 20.738281 7.199219 C 20.429688 7.191406 20.136719 7.050781 19.933594 6.820312 C 19.726562 6.585938 19.628906 6.277344 19.660156 5.96875 L 19.660156 4.78125 C 19.125 5.242188 18.933594 5.988281 19.179688 6.648438 C 19.425781 7.308594 20.058594 7.75 20.765625 7.75 C 21.472656 7.75 22.101562 7.308594 22.347656 6.648438 C 22.59375 5.988281 22.402344 5.242188 21.871094 4.78125 Z M 21.859375 4.839844 "/>
<path style=" stroke:none;fill-rule:nonzero;fill:rgb(6.27451%,11.372549%,15.686275%);fill-opacity:1;" d="M 16.488281 21.421875 C 16.171875 21.421875 15.839844 21.421875 15.488281 21.421875 C 15.140625 21.421875 14.828125 21.210938 14.820312 20.761719 C 14.820312 20.101562 14.820312 19.441406 14.820312 18.761719 C 14.792969 18.570312 14.859375 18.378906 14.992188 18.238281 C 15.128906 18.101562 15.320312 18.035156 15.511719 18.058594 C 16.171875 18.058594 16.820312 18.058594 17.511719 18.058594 C 17.695312 18.042969 17.875 18.105469 18.007812 18.234375 C 18.140625 18.363281 18.207031 18.546875 18.191406 18.730469 C 18.191406 19.378906 18.191406 20.039062 18.191406 20.730469 C 18.191406 21.210938 17.941406 21.410156 17.441406 21.421875 C 17.078125 21.429688 16.808594 21.421875 16.488281 21.421875 Z M 16.488281 21.421875 "/>
<path style=" stroke:none;fill-rule:nonzero;fill:rgb(6.27451%,11.372549%,15.686275%);fill-opacity:1;" d="M 21.5 21.421875 C 21.171875 21.421875 20.851562 21.421875 20.5 21.421875 C 20.148438 21.421875 19.820312 21.199219 19.808594 20.769531 C 19.808594 20.101562 19.808594 19.4375 19.808594 18.769531 C 19.800781 18.578125 19.875 18.394531 20.011719 18.261719 C 20.152344 18.132812 20.339844 18.070312 20.53125 18.089844 C 21.171875 18.089844 21.808594 18.089844 22.449219 18.089844 C 22.640625 18.058594 22.832031 18.121094 22.96875 18.253906 C 23.109375 18.390625 23.175781 18.578125 23.148438 18.769531 C 23.148438 19.421875 23.148438 20.078125 23.148438 20.769531 C 23.148438 21.261719 22.921875 21.449219 22.421875 21.460938 C 22.128906 21.429688 21.808594 21.421875 21.5 21.421875 Z M 21.5 21.421875 "/>
<path style=" stroke:none;fill-rule:nonzero;fill:rgb(6.27451%,11.372549%,15.686275%);fill-opacity:1;" d="M 16.511719 16.429688 C 16.179688 16.429688 15.851562 16.429688 15.511719 16.429688 C 15.320312 16.453125 15.132812 16.386719 14.996094 16.253906 C 14.863281 16.117188 14.796875 15.929688 14.820312 15.738281 C 14.820312 15.078125 14.820312 14.429688 14.820312 13.738281 C 14.796875 13.558594 14.859375 13.378906 14.988281 13.25 C 15.117188 13.117188 15.300781 13.058594 15.480469 13.078125 C 16.148438 13.078125 16.8125 13.078125 17.480469 13.078125 C 17.660156 13.058594 17.84375 13.121094 17.972656 13.246094 C 18.105469 13.375 18.167969 13.558594 18.148438 13.738281 C 18.148438 14.410156 18.148438 15.078125 18.148438 15.738281 C 18.15625 15.921875 18.085938 16.097656 17.953125 16.222656 C 17.820312 16.351562 17.640625 16.414062 17.460938 16.398438 C 17.160156 16.441406 16.828125 16.441406 16.511719 16.429688 Z M 16.511719 16.429688 "/>
<path style=" stroke:none;fill-rule:nonzero;fill:rgb(6.27451%,11.372549%,15.686275%);fill-opacity:1;" d="M 21.488281 16.429688 C 21.179688 16.429688 20.859375 16.429688 20.550781 16.429688 C 20.351562 16.453125 20.15625 16.382812 20.015625 16.242188 C 19.875 16.105469 19.808594 15.90625 19.828125 15.710938 C 19.828125 15.042969 19.828125 14.402344 19.828125 13.789062 C 19.808594 13.601562 19.878906 13.410156 20.015625 13.277344 C 20.152344 13.144531 20.339844 13.078125 20.53125 13.101562 C 21.195312 13.101562 21.835938 13.101562 22.449219 13.101562 C 22.949219 13.101562 23.160156 13.320312 23.171875 13.808594 C 23.179688 14.300781 23.171875 15.058594 23.171875 15.691406 C 23.171875 16.320312 22.949219 16.421875 22.429688 16.429688 C 22.078125 16.441406 21.800781 16.429688 21.488281 16.429688 Z M 21.488281 16.429688 "/>
<path style=" stroke:none;fill-rule:nonzero;fill:rgb(6.27451%,11.372549%,15.686275%);fill-opacity:1;" d="M 4.839844 19.738281 C 4.839844 19.421875 4.839844 19.089844 4.839844 18.738281 C 4.816406 18.558594 4.878906 18.378906 5.003906 18.25 C 5.132812 18.121094 5.308594 18.054688 5.488281 18.070312 C 6.15625 18.070312 6.824219 18.070312 7.488281 18.070312 C 7.671875 18.054688 7.851562 18.121094 7.976562 18.25 C 8.105469 18.378906 8.167969 18.558594 8.148438 18.738281 C 8.148438 19.410156 8.148438 20.078125 8.148438 20.738281 C 8.164062 20.914062 8.101562 21.085938 7.980469 21.210938 C 7.855469 21.335938 7.683594 21.402344 7.511719 21.390625 C 6.820312 21.390625 6.140625 21.390625 5.460938 21.390625 C 5.285156 21.402344 5.113281 21.335938 4.992188 21.210938 C 4.867188 21.085938 4.804688 20.914062 4.820312 20.738281 Z M 4.839844 19.738281 "/>
<path style=" stroke:none;fill-rule:nonzero;fill:rgb(6.27451%,11.372549%,15.686275%);fill-opacity:1;" d="M 16.488281 26.570312 C 16.148438 26.570312 15.800781 26.570312 15.488281 26.570312 C 15.332031 26.589844 15.171875 26.535156 15.058594 26.425781 C 14.941406 26.316406 14.878906 26.160156 14.890625 26 C 14.890625 25.269531 14.890625 24.539062 14.890625 23.820312 C 14.886719 23.660156 14.953125 23.503906 15.070312 23.398438 C 15.191406 23.289062 15.351562 23.238281 15.511719 23.261719 C 16.199219 23.261719 16.878906 23.261719 17.570312 23.261719 C 17.742188 23.246094 17.914062 23.308594 18.039062 23.429688 C 18.164062 23.554688 18.226562 23.726562 18.210938 23.898438 C 18.210938 24.578125 18.210938 25.261719 18.210938 25.898438 C 18.21875 26.074219 18.152344 26.246094 18.023438 26.363281 C 17.898438 26.484375 17.722656 26.542969 17.550781 26.519531 C 17.171875 26.578125 16.828125 26.570312 16.488281 26.570312 Z M 16.488281 26.570312 "/>
<path style=" stroke:none;fill-rule:nonzero;fill:rgb(6.27451%,11.372549%,15.686275%);fill-opacity:1;" d="M 9.851562 14.738281 C 9.851562 14.410156 9.851562 14.078125 9.851562 13.738281 C 9.824219 13.570312 9.878906 13.402344 9.992188 13.277344 C 10.105469 13.152344 10.269531 13.082031 10.441406 13.089844 C 11.148438 13.089844 11.871094 13.089844 12.578125 13.089844 C 12.742188 13.082031 12.898438 13.148438 13.011719 13.261719 C 13.125 13.378906 13.179688 13.539062 13.171875 13.699219 C 13.171875 14.398438 13.171875 15.101562 13.171875 15.800781 C 13.171875 15.96875 13.105469 16.128906 12.984375 16.246094 C 12.863281 16.363281 12.699219 16.421875 12.53125 16.410156 C 11.851562 16.410156 11.160156 16.410156 10.480469 16.410156 C 10.304688 16.425781 10.132812 16.355469 10.011719 16.230469 C 9.890625 16.101562 9.835938 15.925781 9.859375 15.75 L 9.859375 14.75 Z M 9.851562 14.738281 "/>
<path style=" stroke:none;fill-rule:nonzero;fill:rgb(6.27451%,11.372549%,15.686275%);fill-opacity:1;" d="M 4.851562 14.710938 L 4.851562 13.769531 C 4.820312 13.597656 4.875 13.421875 4.992188 13.292969 C 5.113281 13.164062 5.285156 13.09375 5.460938 13.109375 C 6.160156 13.109375 6.859375 13.109375 7.558594 13.109375 C 7.726562 13.101562 7.890625 13.164062 8.007812 13.285156 C 8.125 13.40625 8.183594 13.574219 8.171875 13.738281 C 8.171875 14.410156 8.171875 15.089844 8.171875 15.738281 C 8.1875 15.921875 8.125 16.105469 7.996094 16.234375 C 7.863281 16.363281 7.683594 16.429688 7.5 16.410156 C 6.851562 16.410156 6.191406 16.410156 5.5 16.410156 C 5.03125 16.410156 4.828125 16.191406 4.820312 15.71875 C 4.808594 15.25 4.851562 15.050781 4.851562 14.710938 Z M 4.851562 14.710938 "/>
<path style=" stroke:none;fill-rule:nonzero;fill:rgb(6.27451%,11.372549%,15.686275%);fill-opacity:1;" d="M 11.488281 26.570312 C 11.148438 26.570312 10.808594 26.570312 10.488281 26.570312 C 10.324219 26.585938 10.160156 26.527344 10.042969 26.410156 C 9.929688 26.289062 9.871094 26.125 9.890625 25.960938 C 9.890625 25.292969 9.890625 24.59375 9.890625 23.859375 C 9.875 23.695312 9.933594 23.53125 10.050781 23.414062 C 10.171875 23.296875 10.335938 23.242188 10.5 23.261719 C 11.191406 23.261719 11.871094 23.261719 12.558594 23.261719 C 12.734375 23.246094 12.90625 23.308594 13.03125 23.429688 C 13.152344 23.554688 13.214844 23.726562 13.199219 23.898438 C 13.199219 24.578125 13.199219 25.261719 13.199219 25.898438 C 13.214844 26.074219 13.148438 26.242188 13.023438 26.363281 C 12.894531 26.484375 12.722656 26.542969 12.550781 26.519531 C 12.171875 26.578125 11.828125 26.570312 11.488281 26.570312 Z M 11.488281 26.570312 "/>
<path style=" stroke:none;fill-rule:nonzero;fill:rgb(6.27451%,11.372549%,15.686275%);fill-opacity:1;" d="M 11.5 21.390625 L 10.5 21.390625 C 10.335938 21.410156 10.171875 21.351562 10.050781 21.234375 C 9.933594 21.121094 9.875 20.957031 9.890625 20.789062 C 9.890625 20.089844 9.890625 19.390625 9.890625 18.691406 C 9.875 18.523438 9.933594 18.359375 10.050781 18.238281 C 10.167969 18.121094 10.332031 18.058594 10.5 18.070312 C 11.191406 18.070312 11.890625 18.070312 12.589844 18.070312 C 12.757812 18.0625 12.917969 18.125 13.035156 18.242188 C 13.152344 18.359375 13.210938 18.523438 13.199219 18.691406 C 13.199219 19.378906 13.199219 20.058594 13.199219 20.75 C 13.210938 20.925781 13.148438 21.09375 13.023438 21.21875 C 12.898438 21.339844 12.722656 21.398438 12.550781 21.378906 Z M 11.5 21.390625 "/>
<path style=" stroke:none;fill-rule:nonzero;fill:rgb(6.27451%,11.372549%,15.686275%);fill-opacity:1;" d="M 6.480469 26.570312 C 6.171875 26.570312 5.859375 26.570312 5.539062 26.570312 C 5.070312 26.570312 4.851562 26.359375 4.851562 25.898438 C 4.851562 25.230469 4.851562 24.558594 4.851562 23.898438 C 4.832031 23.734375 4.886719 23.570312 5.003906 23.449219 C 5.121094 23.328125 5.285156 23.265625 5.449219 23.28125 C 6.148438 23.28125 6.859375 23.28125 7.558594 23.28125 C 7.726562 23.269531 7.890625 23.335938 8.007812 23.457031 C 8.125 23.578125 8.183594 23.742188 8.171875 23.910156 C 8.171875 24.589844 8.171875 25.28125 8.171875 25.96875 C 8.183594 26.136719 8.125 26.300781 8.007812 26.421875 C 7.890625 26.539062 7.726562 26.601562 7.558594 26.589844 C 7.199219 26.589844 6.839844 26.589844 6.480469 26.589844 Z M 6.480469 26.570312 "/>
</g>
</svg>
