<?xml version="1.0" encoding="UTF-8"?>
<svg xmlns="http://www.w3.org/2000/svg" xmlns:xlink="http://www.w3.org/1999/xlink" width="54px" height="65px" viewBox="0 0 54 66" version="1.1">
<g id="surface1">
<path style=" stroke:none;fill-rule:nonzero;fill:rgb(87.843137%,93.72549%,98.431373%);fill-opacity:1;" d="M 41.929688 18.9375 L 37.183594 13.632812 L 26.273438 18.160156 L 17.589844 13.644531 L 12.269531 18.804688 L 13.820312 8.960938 L 22.21875 2.351562 L 27.53125 1.308594 L 32.945312 2.351562 L 40.660156 9.199219 Z M 41.929688 18.9375 "/>
<path style="fill:none;stroke-width:1.5;stroke-linecap:round;stroke-linejoin:round;stroke:rgb(6.27451%,11.372549%,15.686275%);stroke-opacity:1;stroke-miterlimit:4;" d="M 47.000293 25.68899 C 47.01168 26.885313 46.753581 28.070168 46.241178 29.151827 C 43.838581 34.41488 38.657624 37.86625 32.869375 38.049712 C 26.955872 38.007668 21.604115 34.544832 19.140788 29.170938 C 18.62459 28.081635 18.362695 26.892957 18.370286 25.68899 L 18.370286 14.249399 C 18.366491 12.926947 18.685319 11.623606 19.300202 10.450216 C 21.175215 6.758053 24.344518 3.887644 28.20082 2.381731 C 31.457422 1.158654 35.055625 1.204519 38.281862 2.511683 C 41.861087 4.120793 44.715358 7.010313 46.279134 10.610745 C 46.764967 11.673293 47.01168 12.831394 47.000293 14.000962 Z M 47.000293 25.68899 " transform="matrix(1.02916,0,0,1.022013,-6.45283,-0.215409)"/>
<path style="fill:none;stroke-width:1.5;stroke-linecap:round;stroke-linejoin:round;stroke:rgb(6.27451%,11.372549%,15.686275%);stroke-opacity:1;stroke-miterlimit:4;" d="M 18.799186 19.248726 C 19.080059 18.950601 22.951543 13.251827 22.951543 13.251827 C 25.38071 15.766779 28.675267 17.261226 32.17099 17.429399 C 35.936198 17.463798 39.549583 15.954063 42.168529 13.251827 L 46.499277 19.248726 " transform="matrix(1.02916,0,0,1.022013,-6.45283,-0.215409)"/>
<path style="fill-rule:nonzero;fill:rgb(87.843137%,93.72549%,98.431373%);fill-opacity:1;stroke-width:1.5;stroke-linecap:round;stroke-linejoin:round;stroke:rgb(6.27451%,11.372549%,15.686275%);stroke-opacity:1;stroke-miterlimit:4;" d="M 56.079303 63.508822 L 8.91931 63.508822 C 8.414499 63.516466 7.92487 63.317716 7.56429 62.96226 C 7.203711 62.602981 6.99875 62.117572 6.99875 61.609231 L 6.99875 50.93024 C 6.99875 49.344063 7.568086 47.811394 8.600482 46.61125 C 10.794323 44.08101 13.413268 41.955913 16.339655 40.331514 C 19.630417 38.542764 23.26278 37.472572 27.001419 37.189736 C 27.001419 37.189736 32.360768 46.110553 32.89974 46.110553 C 33.438711 46.110553 38.741126 37.258534 39.02959 37.250889 C 42.031888 37.140048 45.470677 38.328726 49.30041 40.25125 C 52.200228 41.871827 54.705306 44.119231 56.629661 46.829111 C 57.525417 47.994856 58.007454 49.420505 57.999863 50.888197 L 57.999863 61.609231 C 57.999863 62.117572 57.798698 62.602981 57.438118 62.96226 C 57.077539 63.317716 56.58791 63.516466 56.079303 63.508822 Z M 56.079303 63.508822 " transform="matrix(1.02916,0,0,1.022013,-6.45283,-0.215409)"/>
<path style="fill:none;stroke-width:1.5;stroke-linecap:round;stroke-linejoin:round;stroke:rgb(6.27451%,11.372549%,15.686275%);stroke-opacity:1;stroke-miterlimit:4;" d="M 13.459102 38.039736 L 18.890566 49.540481 L 26.280547 45.370553 L 20.488503 36.858702 " transform="matrix(1.02916,0,0,1.022013,0,0.540881)"/>
<path style="fill:none;stroke-width:1.5;stroke-linecap:round;stroke-linejoin:round;stroke:rgb(6.27451%,11.372549%,15.686275%);stroke-opacity:1;stroke-miterlimit:4;" d="M 39.659941 38.039736 L 34.228477 49.540481 L 26.838496 45.370553 L 32.63054 36.858702 " transform="matrix(1.02916,0,0,1.022013,0,0.540881)"/>
<path style="fill:none;stroke-width:1.5;stroke-linecap:round;stroke-linejoin:round;stroke:rgb(6.27451%,11.372549%,15.686275%);stroke-opacity:1;stroke-miterlimit:4;" d="M 20.651712 49.05125 L 23.430072 54.169063 L 29.241094 54.169063 L 32.000475 48.871611 " transform="matrix(1.02916,0,0,1.022013,0,0.540881)"/>
<path style="fill:none;stroke-width:1.5;stroke-linecap:round;stroke-linejoin:round;stroke:rgb(6.27451%,11.372549%,15.686275%);stroke-opacity:1;stroke-miterlimit:4;" d="M 20.788353 62.451587 L 23.080879 54.66976 " transform="matrix(1.02916,0,0,1.022013,0,0.540881)"/>
<path style="fill:none;stroke-width:1.5;stroke-linecap:round;stroke-linejoin:round;stroke:rgb(6.27451%,11.372549%,15.686275%);stroke-opacity:1;stroke-miterlimit:4;" d="M 31.939746 62.451587 L 29.651016 54.66976 " transform="matrix(1.02916,0,0,1.022013,0,0.540881)"/>
<path style="fill:none;stroke-width:1.5;stroke-linecap:round;stroke-linejoin:round;stroke:rgb(6.27451%,11.372549%,15.686275%);stroke-opacity:1;stroke-miterlimit:4;" d="M 35.978236 56.74899 L 42.30166 56.74899 " transform="matrix(1.02916,0,0,1.022013,0,0.540881)"/>
<path style="fill:none;stroke-width:1.5;stroke-linecap:round;stroke-linejoin:round;stroke:rgb(6.27451%,11.372549%,15.686275%);stroke-opacity:1;stroke-miterlimit:4;" d="M 45.740449 56.74899 L 46.249056 56.74899 " transform="matrix(1.02916,0,0,1.022013,0,0.540881)"/>
</g>
</svg>
