<?xml version="1.0" encoding="UTF-8"?>
<svg xmlns="http://www.w3.org/2000/svg" xmlns:xlink="http://www.w3.org/1999/xlink" width="19px" height="30px" viewBox="0 0 19 30" version="1.1">
<g id="surface1">
<path style="fill-rule:nonzero;fill:rgb(87.843137%,93.72549%,98.431373%);fill-opacity:1;stroke-width:1.5;stroke-linecap:butt;stroke-linejoin:miter;stroke:rgb(6.27451%,11.372549%,15.686275%);stroke-opacity:1;stroke-miterlimit:10;" d="M 24.918986 43.929132 C 24.679801 43.51853 24.448588 43.151778 24.229334 42.761108 C 22.499223 39.819122 20.709315 36.920987 19.090824 33.919204 C 17.86699 31.818355 16.930179 29.566022 16.300323 27.218014 C 15.38743 24.096639 16.228567 20.728104 18.500833 18.400029 C 19.84426 16.9689 21.64214 16.044048 23.591505 15.788917 C 26.051133 15.382301 28.570557 16.056007 30.49999 17.63862 C 32.871916 19.480352 34.131628 22.410378 33.840619 25.400201 C 33.661229 27.210041 33.166912 28.972044 32.381585 30.610467 C 31.197615 33.201647 29.862161 35.717085 28.379208 38.148808 C 27.310845 39.978579 26.218563 41.808351 25.13824 43.638123 Z M 24.918986 38.491641 C 24.966824 38.44779 25.006688 38.395966 25.038579 38.340156 C 26.138834 36.490452 27.259021 34.660681 28.271575 32.759153 C 29.268183 30.989178 30.081414 29.123528 30.699311 27.190109 C 31.149778 25.906478 31.241466 24.523187 30.970389 23.191719 C 30.268777 20.150072 27.418479 18.109019 24.313049 18.423947 C 21.211606 18.738875 18.82772 21.310123 18.751978 24.431499 C 18.763937 25.762967 19.035014 27.078489 19.549264 28.310296 C 20.358509 30.359322 21.331199 32.336591 22.459359 34.230146 C 23.240699 35.669248 24.069877 37.068485 24.899054 38.491641 Z M 24.918986 38.491641 " transform="matrix(0.979887,0,0,0.979887,-14.913873,-14.553378)"/>
<path style="fill-rule:nonzero;fill:rgb(87.843137%,93.72549%,98.431373%);fill-opacity:1;stroke-width:1.5;stroke-linecap:butt;stroke-linejoin:miter;stroke:rgb(6.27451%,11.372549%,15.686275%);stroke-opacity:1;stroke-miterlimit:10;" d="M 24.899054 38.491641 C 24.069877 37.068485 23.240699 35.669248 22.439426 34.258051 C 21.311266 32.368483 20.338577 30.387227 19.529332 28.338201 C 19.015082 27.11038 18.744005 25.790872 18.728059 24.459404 C 18.688195 21.250327 21.103972 18.54354 24.297103 18.220639 C 27.490234 17.897738 30.400329 20.066357 30.998294 23.219624 C 31.273357 24.555078 31.177683 25.934383 30.731203 27.218014 C 30.109319 29.155419 29.296088 31.021069 28.29948 32.791044 C 27.298886 34.688586 26.170726 36.518357 25.070471 38.368061 C 25.018647 38.419885 24.962837 38.459749 24.899054 38.491641 Z M 24.899054 27.660508 C 26.166739 27.664494 27.310845 26.903086 27.793203 25.731075 C 28.275561 24.559065 28.004484 23.215637 27.103551 22.322677 C 26.206604 21.433703 24.855204 21.174585 23.691166 21.668902 C 22.523141 22.16322 21.773692 23.315298 21.789638 24.578997 C 21.789638 25.404188 22.120512 26.193501 22.706517 26.771534 C 23.292523 27.349566 24.085822 27.672467 24.911014 27.660508 Z M 24.899054 27.660508 " transform="matrix(0.979887,0,0,0.979887,-14.913873,-14.553378)"/>
</g>
</svg>
