<?xml version="1.0" encoding="UTF-8"?>
<svg xmlns="http://www.w3.org/2000/svg" xmlns:xlink="http://www.w3.org/1999/xlink" width="30px" height="21px" viewBox="0 0 30 21" version="1.1">
<g id="surface1">
<path style="fill-rule:nonzero;fill:rgb(87.843137%,93.72549%,98.431373%);fill-opacity:1;stroke-width:1.5;stroke-linecap:butt;stroke-linejoin:miter;stroke:rgb(6.27451%,11.372549%,15.686275%);stroke-opacity:1;stroke-miterlimit:10;" d="M 10.728324 23.189668 L 16.050768 27.731122 C 18.56946 29.871034 21.049102 31.99923 23.591223 34.170382 C 23.712276 34.322674 23.895809 34.408583 24.091056 34.408583 C 24.286303 34.408583 24.469836 34.322674 24.590889 34.170382 L 38.238682 23.830079 L 39.000147 23.279482 C 39.261779 23.459109 39.12901 23.701216 39.12901 23.900368 C 39.12901 28.434013 39.12901 32.967658 39.12901 37.501302 C 39.12901 39.18824 38.500314 39.859891 36.911 39.859891 L 12.758897 39.859891 C 12.188775 39.926275 11.618652 39.727122 11.212538 39.317103 C 10.810328 38.910988 10.611176 38.340866 10.681465 37.770743 C 10.681465 33.037947 10.681465 28.309055 10.681465 23.591878 C 10.681465 23.509874 10.70099 23.439585 10.728324 23.189668 Z M 10.728324 23.189668 " transform="matrix(1.000333,0,0,1.000333,-9.923308,-19.670057)"/>
<path style="fill-rule:nonzero;fill:rgb(87.843137%,93.72549%,98.431373%);fill-opacity:1;stroke-width:1.5;stroke-linecap:butt;stroke-linejoin:miter;stroke:rgb(6.27451%,11.372549%,15.686275%);stroke-opacity:1;stroke-miterlimit:10;" d="M 24.911095 20.491349 L 37.000814 20.491349 C 37.449883 20.491349 38.121534 20.300007 38.301161 20.749076 C 38.480789 21.198145 37.828663 21.530065 37.481122 21.748742 C 33.166155 25.028898 28.831663 28.301245 24.481551 31.561876 C 24.376117 31.67512 24.231634 31.741504 24.075436 31.741504 C 23.919238 31.741504 23.77085 31.67512 23.669322 31.561876 L 11.938858 21.448061 C 11.739706 21.268434 11.399975 21.061471 11.509314 20.741266 C 11.618652 20.42106 11.970098 20.530398 12.208299 20.518684 C 13.649225 20.518684 15.078436 20.518684 16.519362 20.518684 Z M 24.911095 20.491349 " transform="matrix(1.000333,0,0,1.000333,-9.923308,-19.670057)"/>
</g>
</svg>
