<?xml version="1.0" encoding="UTF-8"?>
<svg xmlns="http://www.w3.org/2000/svg" xmlns:xlink="http://www.w3.org/1999/xlink" width="65px" height="57px" viewBox="0 0 65 57" version="1.1">
<g id="surface1">
<path style="fill-rule:nonzero;fill:rgb(87.843137%,93.72549%,98.431373%);fill-opacity:1;stroke-width:1.5;stroke-linecap:round;stroke-linejoin:round;stroke:rgb(6.27451%,11.372549%,15.686275%);stroke-opacity:1;stroke-miterlimit:4;" d="M 46.998604 36.868246 C 41.513593 37.049649 36.051791 37.651754 30.659615 38.670702 C 19.558077 40.511754 26.830165 46.428596 27.518692 47.219825 C 28.667527 48.489649 29.704187 49.852105 30.620934 51.299474 C 32.110165 53.731053 31.618912 56.17807 29.619088 57.640877 C 27.619264 59.099825 25.008275 58.501579 23.29856 56.359474 C 20.788143 53.271754 18.331879 50.180175 15.999396 46.999825 C 14.920187 45.529298 13.999571 44.761228 11.91078 45.189649 C 8.379176 45.899825 5.350429 44.000877 4.000451 40.689298 C 3.149462 38.79807 2.360363 36.899123 1.64089 35.000175 C 0.236758 31.584386 1.698912 27.662982 4.998429 25.999474 C 9.849066 23.699123 14.858297 21.761579 19.770824 19.569298 C 25.708407 16.778772 31.015484 12.818772 35.378736 7.920877 C 35.781022 7.488596 47.451176 36.899123 46.998604 36.868246 Z M 46.998604 36.868246 " transform="matrix(1.009854,0,0,1.012074,-0.37581,-2.864169)"/>
<path style="fill:none;stroke-width:1.5;stroke-linecap:round;stroke-linejoin:round;stroke:rgb(6.27451%,11.372549%,15.686275%);stroke-opacity:1;stroke-miterlimit:4;" d="M 20.668253 16.148772 L 28.721703 35.998947 " transform="matrix(1.009854,0,0,1.012074,0.0382302,0)"/>
<path style="fill:none;stroke-width:2;stroke-linecap:round;stroke-linejoin:round;stroke:rgb(6.27451%,11.372549%,15.686275%);stroke-opacity:1;stroke-miterlimit:4;" d="M 8.228341 28.850877 L 12.800473 26.998246 " transform="matrix(1.009854,0,0,1.012074,0.0382302,0)"/>
<path style="fill:none;stroke-width:2;stroke-linecap:round;stroke-linejoin:round;stroke:rgb(6.27451%,11.372549%,15.686275%);stroke-opacity:1;stroke-miterlimit:4;" d="M 16.188956 25.620351 L 17.488648 25.099298 " transform="matrix(1.009854,0,0,1.012074,0.0382302,0)"/>
<path style="fill:none;stroke-width:2;stroke-linecap:round;stroke-linejoin:round;stroke:rgb(6.27451%,11.372549%,15.686275%);stroke-opacity:1;stroke-miterlimit:4;" d="M 10.25911 33.710175 L 14.831242 31.849825 " transform="matrix(1.009854,0,0,1.012074,0.0382302,0)"/>
<path style="fill:none;stroke-width:2;stroke-linecap:round;stroke-linejoin:round;stroke:rgb(6.27451%,11.372549%,15.686275%);stroke-opacity:1;stroke-miterlimit:4;" d="M 18.219725 30.479649 L 19.511681 29.950877 " transform="matrix(1.009854,0,0,1.012074,0.0382302,0)"/>
<path style="fill-rule:nonzero;fill:rgb(87.843137%,93.72549%,98.431373%);fill-opacity:1;stroke-width:1.5;stroke-linecap:round;stroke-linejoin:round;stroke:rgb(6.27451%,11.372549%,15.686275%);stroke-opacity:1;stroke-miterlimit:4;" d="M 11.411791 45.270702 C 15.252846 43.190351 19.298912 41.511404 23.488099 40.268596 C 25.580758 39.67807 27.700495 39.199474 29.839571 38.828947 " transform="matrix(1.009854,0,0,1.012074,-0.37581,-2.864169)"/>
<path style="fill:none;stroke-width:2;stroke-linecap:round;stroke-linejoin:round;stroke:rgb(6.27451%,11.372549%,15.686275%);stroke-opacity:1;stroke-miterlimit:4;" d="M 25.000538 42.65 C 25.631044 43.429649 26.63289 43.811754 27.623132 43.645789 C 28.613374 43.479825 29.433418 42.792807 29.777681 41.847193 C 30.118077 40.905439 29.92467 39.851754 29.270956 39.091404 " transform="matrix(1.009854,0,0,1.012074,-0.37581,-2.864169)"/>
<path style="fill-rule:nonzero;fill:rgb(87.843137%,93.72549%,98.431373%);fill-opacity:1;stroke-width:1.5;stroke-linecap:round;stroke-linejoin:round;stroke:rgb(6.27451%,11.372549%,15.686275%);stroke-opacity:1;stroke-miterlimit:4;" d="M 43.55112 2.531318 L 44.220388 2.528143 C 45.752054 2.529397 46.989534 3.769217 46.990622 5.298474 L 46.991934 37.249998 C 46.989438 38.7778 45.750238 40.020046 44.218572 40.018791 L 43.550756 40.01839 C 42.021222 40.022167 40.780158 38.780893 40.77907 37.251636 L 40.781342 5.301567 C 40.780254 3.77231 42.019454 2.530064 43.55112 2.531318 Z M 43.55112 2.531318 " transform="matrix(0.935659,-0.380767,0.379932,0.937715,-5.202914,15.424006)"/>
<path style="fill:none;stroke-width:1.5;stroke-linecap:round;stroke-linejoin:round;stroke:rgb(6.27451%,11.372549%,15.686275%);stroke-opacity:1;stroke-miterlimit:4;" d="M 49.091286 9.818947 L 57.191154 3.728421 " transform="matrix(1.009854,0,0,1.012074,0.0382302,0)"/>
<path style="fill:none;stroke-width:1.5;stroke-linecap:round;stroke-linejoin:round;stroke:rgb(6.27451%,11.372549%,15.686275%);stroke-opacity:1;stroke-miterlimit:4;" d="M 53.489352 20.649123 L 63.538758 19.371579 " transform="matrix(1.009854,0,0,1.012074,0.0382302,0)"/>
<path style="fill:none;stroke-width:1.5;stroke-linecap:round;stroke-linejoin:round;stroke:rgb(6.27451%,11.372549%,15.686275%);stroke-opacity:1;stroke-miterlimit:4;" d="M 51.288385 15.230175 L 61.94122 10.911228 " transform="matrix(1.009854,0,0,1.012074,0.0382302,0)"/>
</g>
</svg>
