<?xml version="1.0" encoding="UTF-8"?>
<svg xmlns="http://www.w3.org/2000/svg" xmlns:xlink="http://www.w3.org/1999/xlink" width="28px" height="30px" viewBox="0 0 28 30" version="1.1">
<g id="surface1">
<path style="fill-rule:nonzero;fill:rgb(87.843137%,93.72549%,98.431373%);fill-opacity:1;stroke-width:1.5;stroke-linecap:butt;stroke-linejoin:miter;stroke:rgb(6.27451%,11.372549%,15.686275%);stroke-opacity:1;stroke-miterlimit:10;" d="M 11.669732 24.610106 C 11.650208 22.966162 12.071932 21.345647 12.891952 19.920375 C 13.430822 18.9754 14.14541 18.143666 15.000573 17.468126 C 15.418393 17.151833 15.808878 16.769157 16.218888 16.468484 C 16.687471 16.007711 17.366915 15.828087 17.999502 15.999901 C 18.460275 16.175619 18.870285 16.464579 19.190483 16.839445 C 19.737162 17.460317 20.221364 18.128047 20.639184 18.83873 C 21.181959 19.588463 21.634922 20.392863 21.998073 21.240216 C 22.337796 22.009473 22.337796 22.880255 21.998073 23.649512 C 21.802831 24.055617 21.517776 24.414863 21.170244 24.699918 C 20.607945 25.211454 20.018312 25.687846 19.401345 26.129095 C 18.741424 26.66406 18.44856 27.534842 18.651613 28.358767 C 18.928857 29.448221 19.428679 30.471293 20.119838 31.3616 C 20.850046 32.404196 21.666161 33.384315 22.560372 34.290241 C 23.380392 35.203977 24.337081 35.984948 25.399202 36.601915 C 25.981025 36.953352 26.66828 37.097832 27.339915 37.000211 C 27.75383 36.918209 28.1326 36.707347 28.42156 36.398863 C 28.929191 35.871708 29.468061 35.39922 30.018645 34.911113 C 31.002669 33.981758 32.498228 33.856802 33.618922 34.610439 C 34.454561 35.114166 35.235532 35.703799 35.95012 36.371529 C 36.446037 36.777634 36.910714 37.222787 37.340248 37.69918 C 37.761973 38.124809 38.050932 38.663679 38.168078 39.249407 C 38.261794 39.823421 38.054837 40.405244 37.621398 40.791825 C 36.859951 41.561081 36.039932 42.26786 35.169149 42.908256 C 34.153887 43.60332 32.994145 44.064093 31.779735 44.259336 C 29.952263 44.536581 28.085742 44.321814 26.371511 43.638464 C 24.399559 42.849683 22.583802 41.72118 20.998431 40.311528 C 19.514586 39.015116 18.136172 37.597653 16.890523 36.070855 C 15.816688 34.793968 14.848284 33.435078 14.000931 31.998092 C 13.21996 30.69387 12.602992 29.292027 12.169554 27.831611 C 11.864975 26.781205 11.697066 25.699561 11.669732 24.610106 Z M 11.669732 24.610106 " transform="matrix(1.000357,0,0,1.000357,-10.923901,-15.165773)"/>
</g>
</svg>
