<?xml version="1.0" encoding="UTF-8"?>
<svg xmlns="http://www.w3.org/2000/svg" xmlns:xlink="http://www.w3.org/1999/xlink" width="65px" height="65px" viewBox="0 0 65 65" version="1.1">
<g id="surface1">
<path style="fill-rule:nonzero;fill:rgb(87.843137%,93.72549%,98.431373%);fill-opacity:1;stroke-width:1.5;stroke-linecap:butt;stroke-linejoin:miter;stroke:rgb(6.27451%,11.372549%,15.686275%);stroke-opacity:1;stroke-miterlimit:10;" d="M 64.100822 32.379316 C 64.131966 45.179595 56.439341 56.734105 44.616213 61.643214 C 32.796977 66.552323 19.183055 63.846668 10.139549 54.78759 C 1.09215 45.728512 -1.59404 32.110697 3.334535 20.295355 C 8.263109 8.480012 19.829298 0.806852 32.629577 0.861355 C 49.996379 0.935322 64.050213 15.012514 64.100822 32.379316 Z M 32.329814 57.469887 C 42.467261 57.532175 51.639237 51.462944 55.547838 42.107995 C 59.456439 32.753047 57.326952 21.965464 50.159886 14.794505 C 42.99282 7.627439 32.205237 5.494059 22.850288 9.398767 C 13.49534 13.303475 7.422215 22.471558 7.480611 32.609005 C 7.554578 46.30468 18.634138 57.388133 32.329814 57.469887 Z M 32.329814 57.469887 " transform="matrix(1.003396,0,0,1.003396,-0.115391,-0.110374)"/>
<path style="fill-rule:nonzero;fill:rgb(87.843137%,93.72549%,98.431373%);fill-opacity:1;stroke-width:1.5;stroke-linecap:butt;stroke-linejoin:miter;stroke:rgb(6.27451%,11.372549%,15.686275%);stroke-opacity:1;stroke-miterlimit:10;" d="M 38.348436 26.99915 C 38.110962 26.99915 37.861808 26.99915 37.62044 26.99915 C 36.230629 27.158764 35.31966 27.08869 35.300195 25.149962 C 35.300195 22.969865 33.201852 21.899282 31.130761 22.650637 C 30.394978 22.899791 29.830489 23.499317 29.631945 24.246779 C 29.429507 24.998133 29.616373 25.796204 30.130252 26.380159 C 31.298161 27.777756 32.703544 28.961237 34.280221 29.868312 C 36.627718 31.308733 38.691023 33.169601 40.361132 35.361376 C 42.681377 38.650986 42.241465 45.241883 36.499248 46.799095 C 35.498739 47.079393 35.288516 47.58938 35.31966 48.539279 C 35.378055 50.878989 35.31966 50.878989 33.061703 50.878989 L 32.469963 50.878989 C 29.72927 50.878989 29.721484 50.878989 29.65141 48.22005 C 29.65141 47.608845 29.65141 47.161147 28.829981 46.970388 C 24.099951 45.849196 23.25127 41.621367 23.321345 37.919096 C 23.321345 37.389644 23.578285 37.241709 24.049341 37.261174 C 24.520398 37.280639 25.04985 37.261174 25.520906 37.261174 C 26.649885 37.261174 27.961835 36.918588 28.861125 37.381858 C 29.760415 37.841236 29.211498 39.320587 29.499582 40.37949 C 29.74095 41.633046 30.815425 42.5518 32.088446 42.598517 C 33.361466 42.828206 34.630594 42.170284 35.179511 40.998482 C 35.70507 39.888969 35.378055 38.561446 34.400905 37.82177 C 32.399888 35.820754 29.838275 34.590556 27.638714 32.869838 C 24.948631 30.779281 23.34081 28.279957 23.55882 24.729514 C 23.749578 21.521659 25.291218 19.2092 28.370603 18.251514 C 29.468437 17.908928 29.90835 17.430085 29.72927 16.308893 C 29.670875 15.931269 29.72927 15.518608 29.72927 15.140984 C 29.631945 14.319555 29.900564 13.941931 30.729779 14.039257 C 31.2203 14.101546 31.730287 14.039257 32.20913 14.039257 C 33.209638 14.101546 34.369761 13.61881 35.070506 14.21055 C 35.771251 14.798398 35.261264 16.059739 35.331339 17.021317 C 35.331339 17.488481 35.331339 17.850532 35.938651 18.021826 C 39.940685 19.139125 41.038519 22.218511 41.260422 25.901316 C 41.311031 26.699387 41.128059 27.108155 40.259913 27.010829 C 39.62535 26.971899 38.986893 26.968006 38.348436 26.99915 Z M 38.348436 26.99915 " transform="matrix(1.003396,0,0,1.003396,-0.115391,-0.110374)"/>
</g>
</svg>
