<?xml version="1.0" encoding="UTF-8"?>
<svg xmlns="http://www.w3.org/2000/svg" xmlns:xlink="http://www.w3.org/1999/xlink" width="65px" height="64px" viewBox="0 0 65 64" version="1.1">
<g id="surface1">
<path style=" stroke:none;fill-rule:nonzero;fill:rgb(87.843137%,93.72549%,98.431373%);fill-opacity:1;" d="M 24.179688 54.722656 L 6.210938 54.722656 L 6.210938 30 L 11 30 L 10.847656 46.097656 L 18.832031 46.210938 L 19.5625 30 L 24.179688 30 Z M 24.179688 54.722656 "/>
<path style=" stroke:none;fill-rule:nonzero;fill:rgb(87.843137%,93.72549%,98.431373%);fill-opacity:1;" d="M 59.210938 54.722656 L 41.238281 54.722656 L 41.238281 30 L 46.027344 30 L 45.878906 46.097656 L 55.152344 46.230469 L 54.59375 30 L 59.210938 30 Z M 59.210938 54.722656 "/>
<path style=" stroke:none;fill-rule:nonzero;fill:rgb(87.843137%,93.72549%,98.431373%);fill-opacity:1;" d="M 56.695312 21.515625 L 57.707031 25.375 L 61.644531 25.09375 L 59.589844 28.710938 L 5.859375 28.710938 L 3.484375 25.261719 L 7.324219 25.042969 L 7.773438 19.882812 L 3.226562 12.933594 L 10.1875 13.253906 L 17.429688 10.4375 L 18.820312 5.089844 L 25.914062 4.929688 L 32.453125 1.925781 L 38.894531 4.878906 L 46.777344 5.03125 L 47.621094 10.167969 L 54.953125 13.273438 L 62.273438 13.082031 Z M 56.695312 21.515625 "/>
<path style="fill:none;stroke-width:1.5;stroke-linecap:round;stroke-linejoin:round;stroke:rgb(6.27451%,11.372549%,15.686275%);stroke-opacity:1;stroke-miterlimit:4;" d="M 18.191818 17.081467 L 18.191818 10.011421 L 46.698182 10.011421 L 46.698182 17.081467 " transform="matrix(1.001695,0,0,1.001695,0,0.0809832)"/>
<path style="fill-rule:nonzero;fill:rgb(87.843137%,93.72549%,98.431373%);fill-opacity:1;stroke-width:1.5;stroke-linecap:round;stroke-linejoin:round;stroke:rgb(6.27451%,11.372549%,15.686275%);stroke-opacity:1;stroke-miterlimit:4;" d="M 2.211096 58.288957 L 2.211096 54.131941 L 62.678904 54.131941 L 62.678904 58.288957 " transform="matrix(1.001695,0,0,1.001695,0,0.0809832)"/>
<path style="fill-rule:nonzero;fill:rgb(87.843137%,93.72549%,98.431373%);fill-opacity:1;stroke-width:1.5;stroke-linecap:round;stroke-linejoin:round;stroke:rgb(6.27451%,11.372549%,15.686275%);stroke-opacity:1;stroke-miterlimit:4;" d="M 0.748731 58.819308 L 64.141269 58.819308 L 64.141269 62.980223 L 0.748731 62.980223 Z M 0.748731 58.819308 " transform="matrix(1.001695,0,0,1.001695,0,0.0809832)"/>
<path style="fill:none;stroke-width:1.5;stroke-linecap:round;stroke-linejoin:round;stroke:rgb(6.27451%,11.372549%,15.686275%);stroke-opacity:1;stroke-miterlimit:4;" d="M 18.788463 17.081467 L 46.101537 17.081467 L 46.101537 29.119654 L 18.788463 29.119654 Z M 18.788463 17.081467 " transform="matrix(1.001695,0,0,1.001695,0,0.0809832)"/>
<path style="fill-rule:nonzero;fill:rgb(87.843137%,93.72549%,98.431373%);fill-opacity:1;stroke-width:1.5;stroke-linecap:round;stroke-linejoin:round;stroke:rgb(6.27451%,11.372549%,15.686275%);stroke-opacity:1;stroke-miterlimit:4;" d="M 24.540431 32.098978 C 24.540431 33.756325 23.195055 35.101701 21.541608 35.101701 C 19.884261 35.101701 18.538886 33.756325 18.538886 32.098978 C 18.538886 30.441632 19.884261 29.100156 21.541608 29.100156 C 23.195055 29.100156 24.540431 30.441632 24.540431 32.098978 Z M 24.540431 32.098978 " transform="matrix(1.001695,0,0,1.001695,0,0.0809832)"/>
<path style="fill:none;stroke-width:1.5;stroke-linecap:round;stroke-linejoin:round;stroke:rgb(6.27451%,11.372549%,15.686275%);stroke-opacity:1;stroke-miterlimit:4;" d="M 14.739597 1.561066 C 17.644829 3.475789 21.177902 4.193323 24.601785 3.561581 C 27.47192 2.984434 30.07298 1.483073 31.999401 -0.720223 " transform="matrix(1.001695,0,0,1.001695,0.430729,1.553475)"/>
<path style="fill:none;stroke-width:1.5;stroke-linecap:round;stroke-linejoin:round;stroke:rgb(6.27451%,11.372549%,15.686275%);stroke-opacity:1;stroke-miterlimit:4;" d="M 17.828112 7.270138 C 15.909489 9.473434 13.316229 10.986495 10.449994 11.571441 C 7.03001 12.199282 3.496937 11.481749 0.591706 9.570925 L 5.591043 16.87105 L 17.828112 16.87105 " transform="matrix(1.001695,0,0,1.001695,0.430729,1.553475)"/>
<path style="fill:none;stroke-width:1.5;stroke-linecap:round;stroke-linejoin:round;stroke:rgb(6.27451%,11.372549%,15.686275%);stroke-opacity:1;stroke-miterlimit:4;" d="M 18.081588 19.351221 C 16.205862 21.546718 13.647698 23.055879 10.82046 23.640825 C 7.451171 24.268666 3.972693 23.551133 1.129856 21.640309 L 5.349266 27.641855 L 18.081588 27.641855 " transform="matrix(1.001695,0,0,1.001695,0.430729,1.553475)"/>
<path style="fill:none;stroke-width:1.5;stroke-linecap:round;stroke-linejoin:round;stroke:rgb(6.27451%,11.372549%,15.686275%);stroke-opacity:1;stroke-miterlimit:4;" d="M 18.320506 10.069915 L 18.320506 5.651624 " transform="matrix(1.001695,0,0,1.001695,0,0.0809832)"/>
<path style="fill:none;stroke-width:1.5;stroke-linecap:round;stroke-linejoin:round;stroke:rgb(6.27451%,11.372549%,15.686275%);stroke-opacity:1;stroke-miterlimit:4;" d="M 5.849459 29.119654 L 5.849459 53.788773 " transform="matrix(1.001695,0,0,1.001695,0,0.0809832)"/>
<path style="fill:none;stroke-width:1.5;stroke-linecap:round;stroke-linejoin:round;stroke:rgb(6.27451%,11.372549%,15.686275%);stroke-opacity:1;stroke-miterlimit:4;" d="M 10.17026 29.279539 L 10.17026 53.960357 " transform="matrix(1.001695,0,0,1.001695,0,0.0809832)"/>
<path style="fill:none;stroke-width:1.5;stroke-linecap:round;stroke-linejoin:round;stroke:rgb(6.27451%,11.372549%,15.686275%);stroke-opacity:1;stroke-miterlimit:4;" d="M 19.318814 34.579149 L 19.318814 53.788773 " transform="matrix(1.001695,0,0,1.001695,0,0.0809832)"/>
<path style="fill:none;stroke-width:1.5;stroke-linecap:round;stroke-linejoin:round;stroke:rgb(6.27451%,11.372549%,15.686275%);stroke-opacity:1;stroke-miterlimit:4;" d="M 14.748436 46.800619 L 14.748436 53.788773 " transform="matrix(1.001695,0,0,1.001695,0,0.0809832)"/>
<path style="fill:none;stroke-width:1.5;stroke-linecap:round;stroke-linejoin:round;stroke:rgb(6.27451%,11.372549%,15.686275%);stroke-opacity:1;stroke-miterlimit:4;" d="M 10.829299 46.551042 L 18.671474 46.551042 " transform="matrix(1.001695,0,0,1.001695,0,0.0809832)"/>
<path style="fill:none;stroke-width:1.5;stroke-linecap:round;stroke-linejoin:round;stroke:rgb(6.27451%,11.372549%,15.686275%);stroke-opacity:1;stroke-miterlimit:4;" d="M 5.849459 49.869635 L 9.850489 49.869635 " transform="matrix(1.001695,0,0,1.001695,0,0.0809832)"/>
<path style="fill:none;stroke-width:1.5;stroke-linecap:round;stroke-linejoin:round;stroke:rgb(6.27451%,11.372549%,15.686275%);stroke-opacity:1;stroke-miterlimit:4;" d="M 19.330513 49.869635 L 23.780001 49.869635 " transform="matrix(1.001695,0,0,1.001695,0,0.0809832)"/>
<path style="fill:none;stroke-width:1.5;stroke-linecap:round;stroke-linejoin:round;stroke:rgb(6.27451%,11.372549%,15.686275%);stroke-opacity:1;stroke-miterlimit:4;" d="M 23.780001 34.579149 L 23.780001 53.090737 " transform="matrix(1.001695,0,0,1.001695,0,0.0809832)"/>
<path style="fill:none;stroke-width:1.5;stroke-linecap:round;stroke-linejoin:round;stroke:rgb(6.27451%,11.372549%,15.686275%);stroke-opacity:1;stroke-miterlimit:4;" d="M 23.780001 17.428535 L 23.780001 28.581504 " transform="matrix(1.001695,0,0,1.001695,0,0.0809832)"/>
<path style="fill:none;stroke-width:1.5;stroke-linecap:round;stroke-linejoin:round;stroke:rgb(6.27451%,11.372549%,15.686275%);stroke-opacity:1;stroke-miterlimit:4;" d="M 7.760282 24.771556 L 7.760282 18.321552 " transform="matrix(1.001695,0,0,1.001695,0,0.0809832)"/>
<path style="fill-rule:nonzero;fill:rgb(87.843137%,93.72549%,98.431373%);fill-opacity:1;stroke-width:1.5;stroke-linecap:round;stroke-linejoin:round;stroke:rgb(6.27451%,11.372549%,15.686275%);stroke-opacity:1;stroke-miterlimit:4;" d="M 46.351114 32.098978 C 46.351114 33.756325 45.005739 35.101701 43.348392 35.101701 C 41.694945 35.101701 40.349569 33.756325 40.349569 32.098978 C 40.349569 30.441632 41.694945 29.100156 43.348392 29.100156 C 45.005739 29.100156 46.351114 30.441632 46.351114 32.098978 Z M 46.351114 32.098978 " transform="matrix(1.001695,0,0,1.001695,0,0.0809832)"/>
<path style="fill:none;stroke-width:1.5;stroke-linecap:round;stroke-linejoin:round;stroke:rgb(6.27451%,11.372549%,15.686275%);stroke-opacity:1;stroke-miterlimit:4;" d="M 49.290403 1.561066 C 46.389071 3.471889 42.859897 4.189423 39.439913 3.561581 C 36.577578 2.984434 33.980418 1.479174 32.061796 -0.720223 " transform="matrix(1.001695,0,0,1.001695,0.430729,1.553475)"/>
<path style="fill:none;stroke-width:1.5;stroke-linecap:round;stroke-linejoin:round;stroke:rgb(6.27451%,11.372549%,15.686275%);stroke-opacity:1;stroke-miterlimit:4;" d="M 46.209688 7.270138 C 48.12441 9.477334 50.717671 10.986495 53.580006 11.571441 C 56.99999 12.199282 60.533063 11.481749 63.438294 9.570925 L 58.438957 16.87105 L 46.209688 16.87105 " transform="matrix(1.001695,0,0,1.001695,0.430729,1.553475)"/>
<path style="fill:none;stroke-width:1.5;stroke-linecap:round;stroke-linejoin:round;stroke:rgb(6.27451%,11.372549%,15.686275%);stroke-opacity:1;stroke-miterlimit:4;" d="M 45.999107 19.351221 C 47.874834 21.546718 50.425198 23.055879 53.248537 23.640825 C 56.621725 24.268666 60.104103 23.551133 62.95084 21.640309 L 58.73143 27.641855 L 45.999107 27.641855 " transform="matrix(1.001695,0,0,1.001695,0.430729,1.553475)"/>
<path style="fill:none;stroke-width:1.5;stroke-linecap:round;stroke-linejoin:round;stroke:rgb(6.27451%,11.372549%,15.686275%);stroke-opacity:1;stroke-miterlimit:4;" d="M 46.561695 10.069915 L 46.561695 5.651624 " transform="matrix(1.001695,0,0,1.001695,0,0.0809832)"/>
<path style="fill:none;stroke-width:1.5;stroke-linecap:round;stroke-linejoin:round;stroke:rgb(6.27451%,11.372549%,15.686275%);stroke-opacity:1;stroke-miterlimit:4;" d="M 59.040541 29.119654 L 59.040541 53.788773 " transform="matrix(1.001695,0,0,1.001695,0,0.0809832)"/>
<path style="fill:none;stroke-width:1.5;stroke-linecap:round;stroke-linejoin:round;stroke:rgb(6.27451%,11.372549%,15.686275%);stroke-opacity:1;stroke-miterlimit:4;" d="M 54.711941 29.279539 L 54.711941 53.960357 " transform="matrix(1.001695,0,0,1.001695,0,0.0809832)"/>
<path style="fill:none;stroke-width:1.5;stroke-linecap:round;stroke-linejoin:round;stroke:rgb(6.27451%,11.372549%,15.686275%);stroke-opacity:1;stroke-miterlimit:4;" d="M 45.559487 34.579149 L 45.559487 53.788773 " transform="matrix(1.001695,0,0,1.001695,0,0.0809832)"/>
<path style="fill:none;stroke-width:1.5;stroke-linecap:round;stroke-linejoin:round;stroke:rgb(6.27451%,11.372549%,15.686275%);stroke-opacity:1;stroke-miterlimit:4;" d="M 50.141564 46.800619 L 50.141564 53.788773 " transform="matrix(1.001695,0,0,1.001695,0,0.0809832)"/>
<path style="fill:none;stroke-width:1.5;stroke-linecap:round;stroke-linejoin:round;stroke:rgb(6.27451%,11.372549%,15.686275%);stroke-opacity:1;stroke-miterlimit:4;" d="M 54.060701 46.551042 L 46.210727 46.551042 " transform="matrix(1.001695,0,0,1.001695,0,0.0809832)"/>
<path style="fill:none;stroke-width:1.5;stroke-linecap:round;stroke-linejoin:round;stroke:rgb(6.27451%,11.372549%,15.686275%);stroke-opacity:1;stroke-miterlimit:4;" d="M 59.040541 49.869635 L 55.031712 49.869635 " transform="matrix(1.001695,0,0,1.001695,0,0.0809832)"/>
<path style="fill:none;stroke-width:1.5;stroke-linecap:round;stroke-linejoin:round;stroke:rgb(6.27451%,11.372549%,15.686275%);stroke-opacity:1;stroke-miterlimit:4;" d="M 45.559487 49.869635 L 41.0983 49.869635 " transform="matrix(1.001695,0,0,1.001695,0,0.0809832)"/>
<path style="fill:none;stroke-width:1.5;stroke-linecap:round;stroke-linejoin:round;stroke:rgb(6.27451%,11.372549%,15.686275%);stroke-opacity:1;stroke-miterlimit:4;" d="M 41.0983 34.579149 L 41.0983 53.090737 " transform="matrix(1.001695,0,0,1.001695,0,0.0809832)"/>
<path style="fill:none;stroke-width:1.5;stroke-linecap:round;stroke-linejoin:round;stroke:rgb(6.27451%,11.372549%,15.686275%);stroke-opacity:1;stroke-miterlimit:4;" d="M 41.0983 17.428535 L 41.0983 28.581504 " transform="matrix(1.001695,0,0,1.001695,0,0.0809832)"/>
<path style="fill:none;stroke-width:1.5;stroke-linecap:round;stroke-linejoin:round;stroke:rgb(6.27451%,11.372549%,15.686275%);stroke-opacity:1;stroke-miterlimit:4;" d="M 57.129718 24.771556 L 57.129718 18.321552 " transform="matrix(1.001695,0,0,1.001695,0,0.0809832)"/>
<path style="fill:none;stroke-width:1.5;stroke-linecap:round;stroke-linejoin:round;stroke:rgb(6.27451%,11.372549%,15.686275%);stroke-opacity:1;stroke-miterlimit:4;" d="M 28.611654 21.250181 L 28.611654 21.550454 " transform="matrix(1.001695,0,0,1.001695,0,0.0809832)"/>
<path style="fill:none;stroke-width:1.5;stroke-linecap:round;stroke-linejoin:round;stroke:rgb(6.27451%,11.372549%,15.686275%);stroke-opacity:1;stroke-miterlimit:4;" d="M 32.519093 21.250181 L 32.519093 21.550454 " transform="matrix(1.001695,0,0,1.001695,0,0.0809832)"/>
<path style="fill:none;stroke-width:1.5;stroke-linecap:round;stroke-linejoin:round;stroke:rgb(6.27451%,11.372549%,15.686275%);stroke-opacity:1;stroke-miterlimit:4;" d="M 36.430431 21.250181 L 36.430431 21.550454 " transform="matrix(1.001695,0,0,1.001695,0,0.0809832)"/>
<path style="fill:none;stroke-width:1.5;stroke-linecap:round;stroke-linejoin:round;stroke:rgb(6.27451%,11.372549%,15.686275%);stroke-opacity:1;stroke-miterlimit:4;" d="M 28.611654 24.631169 L 28.611654 24.919742 " transform="matrix(1.001695,0,0,1.001695,0,0.0809832)"/>
<path style="fill:none;stroke-width:1.5;stroke-linecap:round;stroke-linejoin:round;stroke:rgb(6.27451%,11.372549%,15.686275%);stroke-opacity:1;stroke-miterlimit:4;" d="M 32.519093 24.631169 L 32.519093 24.919742 " transform="matrix(1.001695,0,0,1.001695,0,0.0809832)"/>
<path style="fill:none;stroke-width:1.5;stroke-linecap:round;stroke-linejoin:round;stroke:rgb(6.27451%,11.372549%,15.686275%);stroke-opacity:1;stroke-miterlimit:4;" d="M 36.430431 24.631169 L 36.430431 24.919742 " transform="matrix(1.001695,0,0,1.001695,0,0.0809832)"/>
</g>
</svg>
