<?xml version="1.0" encoding="UTF-8"?>
<svg xmlns="http://www.w3.org/2000/svg" xmlns:xlink="http://www.w3.org/1999/xlink" width="65px" height="64px" viewBox="0 0 66 64" version="1.1">
<g id="surface1">
<path style=" stroke:none;fill-rule:nonzero;fill:rgb(87.843137%,93.72549%,98.431373%);fill-opacity:1;" d="M 3.40625 49.867188 C 5.484375 48.917969 7.449219 47.726562 9.253906 46.320312 C 10.910156 45.03125 12.417969 43.570312 13.761719 41.960938 L 52.15625 41.960938 C 55.027344 45.378906 58.648438 48.085938 62.738281 49.867188 Z M 3.40625 49.867188 "/>
<path style=" stroke:none;fill-rule:nonzero;fill:rgb(87.843137%,93.72549%,98.431373%);fill-opacity:1;" d="M 22.027344 50.503906 L 23.957031 50.503906 L 23.957031 62.746094 L 22.027344 62.746094 Z M 22.027344 50.503906 "/>
<path style=" stroke:none;fill-rule:nonzero;fill:rgb(87.843137%,93.72549%,98.431373%);fill-opacity:1;" d="M 41.941406 50.625 L 43.871094 50.625 L 43.871094 62.867188 L 41.941406 62.867188 Z M 41.941406 50.625 "/>
<path style=" stroke:none;fill-rule:nonzero;fill:rgb(87.843137%,93.72549%,98.431373%);fill-opacity:1;" d="M 11.457031 33.5 L 19.582031 29.265625 L 46.316406 29.105469 L 54.59375 33.5 Z M 11.457031 33.5 "/>
<path style=" stroke:none;fill-rule:nonzero;fill:rgb(87.843137%,93.72549%,98.431373%);fill-opacity:1;" d="M 16.246094 19.863281 C 19.226562 18.910156 22.058594 17.550781 24.664062 15.820312 C 27.308594 14.050781 29.6875 11.917969 31.738281 9.480469 L 34.183594 9.480469 C 36.054688 11.945312 38.320312 14.078125 40.890625 15.800781 C 43.769531 17.714844 46.976562 19.085938 50.347656 19.84375 L 36.34375 19.84375 L 35.847656 17.691406 L 30.222656 17.691406 L 29.835938 19.84375 Z M 16.246094 19.863281 "/>
<path style="fill:none;stroke-width:1.5;stroke-linecap:butt;stroke-linejoin:miter;stroke:rgb(6.27451%,11.372549%,15.686275%);stroke-opacity:1;stroke-miterlimit:10;" d="M 6.901345 49.661873 L 57.700511 49.661873 L 57.700511 62.548765 L 6.901345 62.548765 Z M 6.901345 49.661873 " transform="matrix(1.010413,0,0,1.010899,0.393981,0)"/>
<path style="fill:none;stroke-width:1.5;stroke-linecap:butt;stroke-linejoin:miter;stroke:rgb(6.27451%,11.372549%,15.686275%);stroke-opacity:1;stroke-miterlimit:10;" d="M 12.750594 37.671459 L 51.878324 37.671459 L 51.878324 41.508546 L 12.750594 41.508546 Z M 12.750594 37.671459 " transform="matrix(1.010413,0,0,1.010899,0.393981,0)"/>
<path style="fill-rule:nonzero;fill:rgb(87.843137%,93.72549%,98.431373%);fill-opacity:1;stroke-width:1.5;stroke-linecap:butt;stroke-linejoin:miter;stroke:rgb(6.27451%,11.372549%,15.686275%);stroke-opacity:1;stroke-miterlimit:10;" d="M 19.148815 24.691827 L 45.449175 24.691827 L 45.449175 28.791675 L 19.148815 28.791675 Z M 19.148815 24.691827 " transform="matrix(1.010413,0,0,1.010899,0.393981,0)"/>
<path style="fill:none;stroke-width:1.5;stroke-linecap:butt;stroke-linejoin:miter;stroke:rgb(6.27451%,11.372549%,15.686275%);stroke-opacity:1;stroke-miterlimit:10;" d="M 29.521278 17.531584 L 35.08831 17.531584 L 35.08831 24.691827 L 29.521278 24.691827 Z M 29.521278 17.531584 " transform="matrix(1.010413,0,0,1.010899,0.393981,0)"/>
<path style="fill-rule:nonzero;fill:rgb(87.843137%,93.72549%,98.431373%);fill-opacity:1;stroke-width:1.5;stroke-linecap:butt;stroke-linejoin:miter;stroke:rgb(6.27451%,11.372549%,15.686275%);stroke-opacity:1;stroke-miterlimit:10;" d="M 12.190025 54.271786 L 17.509633 54.271786 L 17.509633 62.548765 L 12.190025 62.548765 Z M 12.190025 54.271786 " transform="matrix(1.010413,0,0,1.010899,0.393981,0)"/>
<path style="fill-rule:nonzero;fill:rgb(87.843137%,93.72549%,98.431373%);fill-opacity:1;stroke-width:1.5;stroke-linecap:butt;stroke-linejoin:miter;stroke:rgb(6.27451%,11.372549%,15.686275%);stroke-opacity:1;stroke-miterlimit:10;" d="M 29.648856 54.271786 L 34.968464 54.271786 L 34.968464 62.548765 L 29.648856 62.548765 Z M 29.648856 54.271786 " transform="matrix(1.010413,0,0,1.010899,0.393981,0)"/>
<path style="fill-rule:nonzero;fill:rgb(87.843137%,93.72549%,98.431373%);fill-opacity:1;stroke-width:1.5;stroke-linecap:butt;stroke-linejoin:miter;stroke:rgb(6.27451%,11.372549%,15.686275%);stroke-opacity:1;stroke-miterlimit:10;" d="M 47.691452 54.271786 L 53.01106 54.271786 L 53.01106 62.548765 L 47.691452 62.548765 Z M 47.691452 54.271786 " transform="matrix(1.010413,0,0,1.010899,0.393981,0)"/>
<path style="fill:none;stroke-width:1.5;stroke-linecap:round;stroke-linejoin:round;stroke:rgb(6.27451%,11.372549%,15.686275%);stroke-opacity:1;stroke-miterlimit:4;" d="M 7.059693 51.431873 L 1.380548 51.431873 C 4.280044 50.713143 7.00557 49.403201 9.37929 47.590922 C 10.887028 46.443273 12.232394 45.09469 13.380594 43.591541 " transform="matrix(1.010413,0,0,1.010899,-0.242579,-1.789291)"/>
<path style="fill:none;stroke-width:1.5;stroke-linecap:round;stroke-linejoin:round;stroke:rgb(6.27451%,11.372549%,15.686275%);stroke-opacity:1;stroke-miterlimit:4;" d="M 13.368996 39.429867 C 10.689862 39.313943 8.331606 37.617587 7.368973 35.109763 C 10.597078 35.020888 13.75173 34.143729 16.558442 32.551705 C 17.629322 31.925715 18.634481 31.195394 19.558453 30.368469 " transform="matrix(1.010413,0,0,1.010899,-0.242579,-1.789291)"/>
<path style="fill:none;stroke-width:1.5;stroke-linecap:round;stroke-linejoin:round;stroke:rgb(6.27451%,11.372549%,15.686275%);stroke-opacity:1;stroke-miterlimit:4;" d="M 19.999177 26.461827 C 17.215661 26.415458 14.814878 24.491118 14.169257 21.778495 C 17.780096 21.06363 21.224697 19.664813 24.30976 17.659326 C 27.18606 15.789084 29.702823 13.416505 31.740202 10.661376 " transform="matrix(1.010413,0,0,1.010899,-0.242579,-1.789291)"/>
<path style="fill:none;stroke-width:1.5;stroke-linecap:round;stroke-linejoin:round;stroke:rgb(6.27451%,11.372549%,15.686275%);stroke-opacity:1;stroke-miterlimit:4;" d="M 58.740307 51.431873 L 64.419452 51.431873 C 61.51609 50.713143 58.79443 49.407065 56.42071 47.590922 C 54.916838 46.439409 53.571472 45.09469 52.419406 43.591541 " transform="matrix(1.010413,0,0,1.010899,-0.242579,-1.789291)"/>
<path style="fill:none;stroke-width:1.5;stroke-linecap:round;stroke-linejoin:round;stroke:rgb(6.27451%,11.372549%,15.686275%);stroke-opacity:1;stroke-miterlimit:4;" d="M 52.419406 39.429867 C 55.09854 39.306215 57.45293 37.609859 58.419429 35.109763 C 55.191324 35.024752 52.036672 34.143729 49.22996 32.551705 C 48.15908 31.929579 47.153921 31.199258 46.229949 30.368469 " transform="matrix(1.010413,0,0,1.010899,-0.242579,-1.789291)"/>
<path style="fill:none;stroke-width:1.5;stroke-linecap:round;stroke-linejoin:round;stroke:rgb(6.27451%,11.372549%,15.686275%);stroke-opacity:1;stroke-miterlimit:4;" d="M 45.851081 26.461827 C 48.630731 26.411594 51.027648 24.487254 51.669403 21.778495 C 48.058564 21.06363 44.617829 19.664813 41.528899 17.659326 C 38.660332 15.781356 36.143569 13.412641 34.098458 10.661376 " transform="matrix(1.010413,0,0,1.010899,-0.242579,-1.789291)"/>
<path style="fill-rule:nonzero;fill:rgb(87.843137%,93.72549%,98.431373%);fill-opacity:1;stroke-width:1.5;stroke-linecap:butt;stroke-linejoin:miter;stroke:rgb(6.27451%,11.372549%,15.686275%);stroke-opacity:1;stroke-miterlimit:10;" d="M 34.009697 7.670309 C 34.009697 8.609294 33.248097 9.370529 32.30866 9.370529 C 31.369223 9.370529 30.611488 8.609294 30.611488 7.670309 C 30.611488 6.731324 31.369223 5.97009 32.30866 5.97009 C 33.248097 5.97009 34.009697 6.731324 34.009697 7.670309 Z M 34.009697 7.670309 " transform="matrix(1.010413,0,0,1.010899,0.393981,0)"/>
<path style="fill-rule:nonzero;fill:rgb(87.843137%,93.72549%,98.431373%);fill-opacity:1;stroke-width:1.5;stroke-linecap:butt;stroke-linejoin:miter;stroke:rgb(6.27451%,11.372549%,15.686275%);stroke-opacity:1;stroke-miterlimit:10;" d="M 34.009697 2.449862 C 34.009697 3.388847 33.248097 4.150082 32.30866 4.150082 C 31.369223 4.150082 30.611488 3.388847 30.611488 2.449862 C 30.611488 1.510877 31.369223 0.749642 32.30866 0.749642 C 33.248097 0.749642 34.009697 1.510877 34.009697 2.449862 Z M 34.009697 2.449862 " transform="matrix(1.010413,0,0,1.010899,0.393981,0)"/>
<path style="fill:none;stroke-width:1.5;stroke-linecap:round;stroke-linejoin:round;stroke:rgb(6.27451%,11.372549%,15.686275%);stroke-opacity:1;stroke-miterlimit:4;" d="M 30.128239 5.058154 L 34.431091 5.058154 " transform="matrix(1.010413,0,0,1.010899,0.393981,0)"/>
<path style="fill:none;stroke-width:1.5;stroke-linecap:round;stroke-linejoin:round;stroke:rgb(6.27451%,11.372549%,15.686275%);stroke-opacity:1;stroke-miterlimit:4;" d="M 7.071449 33.498193 L 57.360304 33.498193 " transform="matrix(1.010413,0,0,1.010899,0.393981,0)"/>
<path style="fill:none;stroke-width:1.5;stroke-linecap:round;stroke-linejoin:round;stroke:rgb(6.27451%,11.372549%,15.686275%);stroke-opacity:1;stroke-miterlimit:4;" d="M 13.488999 20.008495 L 29.138545 20.008495 " transform="matrix(1.010413,0,0,1.010899,0.393981,0)"/>
<path style="fill:none;stroke-width:1.5;stroke-linecap:round;stroke-linejoin:round;stroke:rgb(6.27451%,11.372549%,15.686275%);stroke-opacity:1;stroke-miterlimit:4;" d="M 35.08831 20.008495 L 50.741721 20.008495 " transform="matrix(1.010413,0,0,1.010899,0.393981,0)"/>
<path style="fill:none;stroke-width:1.5;stroke-linecap:round;stroke-linejoin:round;stroke:rgb(6.27451%,11.372549%,15.686275%);stroke-opacity:1;stroke-miterlimit:4;" d="M 21.410422 49.959411 L 21.410422 62.301461 " transform="matrix(1.010413,0,0,1.010899,0.393981,0)"/>
<path style="fill:none;stroke-width:1.5;stroke-linecap:round;stroke-linejoin:round;stroke:rgb(6.27451%,11.372549%,15.686275%);stroke-opacity:1;stroke-miterlimit:4;" d="M 23.579245 49.959411 L 23.579245 62.301461 " transform="matrix(1.010413,0,0,1.010899,0.393981,0)"/>
<path style="fill:none;stroke-width:1.5;stroke-linecap:round;stroke-linejoin:round;stroke:rgb(6.27451%,11.372549%,15.686275%);stroke-opacity:1;stroke-miterlimit:4;" d="M 40.999415 49.959411 L 40.999415 62.301461 " transform="matrix(1.010413,0,0,1.010899,0.393981,0)"/>
<path style="fill:none;stroke-width:1.5;stroke-linecap:round;stroke-linejoin:round;stroke:rgb(6.27451%,11.372549%,15.686275%);stroke-opacity:1;stroke-miterlimit:4;" d="M 43.160506 49.959411 L 43.160506 62.301461 " transform="matrix(1.010413,0,0,1.010899,0.393981,0)"/>
</g>
</svg>
